<?xml version="1.0" encoding="utf-8"?>
<!-- Generator: Adobe Illustrator 15.0.2, SVG Export Plug-In . SVG Version: 6.00 Build 0)  -->
<!DOCTYPE svg PUBLIC "-//W3C//DTD SVG 1.1//EN" "http://www.w3.org/Graphics/SVG/1.1/DTD/svg11.dtd">
<svg version="1.1" id="Layer_1" xmlns="http://www.w3.org/2000/svg" xmlns:xlink="http://www.w3.org/1999/xlink" x="0px" y="0px"
	 width="510px" height="143px" viewBox="0 0 510 143" enable-background="new 0 0 510 143" xml:space="preserve">
<path fill="#FFFFFF" d="M114.444,20.442c31.337,2.477,57.692,14.038,70.704,29.896h3.171
	c-13.441-17.696-42.271-30.529-76.479-32.645C112.851,18.53,113.715,19.469,114.444,20.442z"/>
<path fill="#FFFFFF" d="M91.149,17.73c-33.911,2.243-62.446,15.028-75.798,32.608h3.17c12.927-15.755,39.024-27.273,70.094-29.851
	C89.303,19.518,90.136,18.574,91.149,17.73z"/>
<rect x="107.617" y="64.992" fill="#FFFFFF" width="3.248" height="4.75"/>
<rect x="98.631" y="64.992" fill="#FFFFFF" width="3.243" height="4.75"/>
<rect x="89.941" y="64.992" fill="#FFFFFF" width="3.243" height="4.75"/>
<rect x="81.436" y="64.992" fill="#FFFFFF" width="3.243" height="4.75"/>
<rect x="116.556" y="64.992" fill="#FFFFFF" width="3.249" height="4.75"/>
<rect x="125.542" y="64.992" fill="#FFFFFF" width="3.243" height="4.75"/>
<rect x="134.271" y="64.992" fill="#FFFFFF" width="3.249" height="4.75"/>
<path fill="#FFFFFF" d="M100.186,46.181c0,1.467,1.189,2.651,2.656,2.651c1.46,0,2.651-1.184,2.651-2.651
	c0-1.46-1.191-2.651-2.651-2.651C101.375,43.53,100.186,44.721,100.186,46.181z"/>
<rect x="107.617" y="73.095" fill="#FFFFFF" width="3.248" height="4.747"/>
<rect x="98.631" y="73.095" fill="#FFFFFF" width="3.243" height="4.747"/>
<rect x="89.941" y="73.095" fill="#FFFFFF" width="3.243" height="4.747"/>
<rect x="81.436" y="73.095" fill="#FFFFFF" width="3.243" height="4.747"/>
<rect x="116.556" y="73.095" fill="#FFFFFF" width="3.249" height="4.747"/>
<rect x="125.542" y="73.095" fill="#FFFFFF" width="3.243" height="4.747"/>
<rect x="134.271" y="73.095" fill="#FFFFFF" width="3.249" height="4.747"/>
<rect x="98.631" y="81.291" fill="#FFFFFF" width="3.243" height="4.749"/>
<rect x="89.941" y="81.291" fill="#FFFFFF" width="3.243" height="4.749"/>
<rect x="81.436" y="81.291" fill="#FFFFFF" width="3.243" height="4.749"/>
<rect x="116.556" y="81.291" fill="#FFFFFF" width="3.249" height="4.749"/>
<rect x="125.542" y="81.291" fill="#FFFFFF" width="3.243" height="4.749"/>
<rect x="134.271" y="81.291" fill="#FFFFFF" width="3.249" height="4.749"/>
<path fill="#FFFFFF" d="M103.528,18.573L101.812,0l-1.434,18.374c-3.238,0.51-5.75,3.188-6.003,6.498l4.731-1.396h5.838l3.67,1.33
	C108.36,21.844,106.293,19.393,103.528,18.573z"/>
<rect x="30.057" y="75.529" fill="#FFFFFF" width="2.522" height="4.022"/>
<rect x="36.648" y="75.529" fill="#FFFFFF" width="2.523" height="4.022"/>
<rect x="43.089" y="75.529" fill="#FFFFFF" width="2.525" height="4.022"/>
<rect x="30.057" y="68.24" fill="#FFFFFF" width="2.522" height="4.018"/>
<rect x="36.648" y="68.24" fill="#FFFFFF" width="2.523" height="4.018"/>
<rect x="43.089" y="68.24" fill="#FFFFFF" width="2.525" height="4.018"/>
<rect x="30.057" y="82.895" fill="#FFFFFF" width="2.522" height="4.019"/>
<rect x="43.089" y="82.895" fill="#FFFFFF" width="2.525" height="4.019"/>
<path fill="#FFFFFF" d="M36.415,63.968h-0.016C36.399,63.968,36.41,64.034,36.415,63.968z"/>
<path fill="#FFFFFF" d="M39.254,63.73c0-0.803-0.598-1.457-1.344-1.457c-0.742,0-1.346,0.654-1.346,1.457c0,0.028,0,1.655,0,1.655
	h2.697L39.254,63.73z"/>
<rect x="179.756" y="75.529" fill="#FFFFFF" width="2.522" height="4.022"/>
<rect x="186.346" y="75.529" fill="#FFFFFF" width="2.524" height="4.022"/>
<rect x="192.789" y="75.529" fill="#FFFFFF" width="2.523" height="4.022"/>
<rect x="179.756" y="68.24" fill="#FFFFFF" width="2.522" height="4.018"/>
<rect x="186.346" y="68.24" fill="#FFFFFF" width="2.524" height="4.018"/>
<rect x="192.789" y="68.24" fill="#FFFFFF" width="2.523" height="4.018"/>
<rect x="179.756" y="82.895" fill="#FFFFFF" width="2.522" height="4.019"/>
<rect x="192.789" y="82.895" fill="#FFFFFF" width="2.523" height="4.019"/>
<path fill="#FFFFFF" d="M186.109,63.968h-0.012C186.097,63.968,186.109,64.034,186.109,63.968z"/>
<path fill="#FFFFFF" d="M188.958,63.73c0-0.803-0.608-1.457-1.351-1.457c-0.741,0-1.349,0.654-1.349,1.457
	c0,0.028,0.005,1.655,0.005,1.655h2.695V63.73L188.958,63.73z"/>
<path fill="#FFFFFF" d="M141.225,113.095h2.942v-2.249h1.674v-2.13h-1.674v-7.423h-3.483l-4.734,7.051v2.502h5.275V113.095z
	 M114.817,113.297c3.906,0,4.582-3.043,4.582-6.104c0-3.062-0.676-6.104-4.582-6.104c-3.906,0-4.582,3.043-4.582,6.104
	C110.235,110.254,110.911,113.297,114.817,113.297z M62.034,113.095h3.145v-11.802h-2.772l-4.007,2.604l1.403,2.131l2.232-1.59
	L62.034,113.095L62.034,113.095z M84.333,104.488c0,1.166,0.93,2.146,2.029,2.52c-1.268,0.389-2.333,1.2-2.333,2.926
	c0,2.418,2.062,3.363,4.599,3.363c2.468,0,4.632-0.997,4.632-3.533c0-1.774-1.099-2.502-2.384-2.908
	c1.031-0.422,1.944-1.285,1.944-2.738c0-2.079-1.725-3.026-4.058-3.026C86.43,101.09,84.333,101.97,84.333,104.488z M200.979,64.588
	l-4.6,0.005v-3.896h-4.36v-2.772h-8.777v2.767h-4.339l-0.016,3.751h-4.067l0.01,27.702h10.803v-7.213h3.846v7.213h10.947v2.346
	h-13.698c-14.777,17.279-48.779,31.838-86.509,31.838c-37.721,0-68.513-14.538-83.131-31.838H0l0.051-30.008l4.174-0.021
	l0.043-4.627h4.803l0.013-3.9h36.231l0.018,3.173l4.364,0.024l0.011,3.896l1.589,0.001l-0.017,1.56l-4.598,0.005v-3.896h-4.363
	v-2.772h-8.77v2.767h-4.345l-0.016,3.751H25.12l0.012,27.702h10.796v-7.213h3.853v7.213h16.387V61.046l-1.043-1.012l9.713-9.696
	l27.041,0.04l0.952-0.04v-8.942l-0.87,0.011v-0.919l1.246-1.212h1.411V28.888l-1.312-0.3l-0.287-0.973l4.477-1.262v12.922
	l2.523-0.034V26.099h4.146v13.176h2.523V26.353l3.055,1.262l-0.289,0.831l-1.238,0.299v10.531h1.028l1.003,1.141l0.032,0.98
	l-13.646-0.018V53.26h12.711l-0.011-2.878l1.571-0.002l3.459-0.042h19.975l9.711,9.696l-1.085,1.012h-28.601H91.879H75.403v31.099
	h30.929l0.013-7.272c0-1.188,1.173-2.159,2.613-2.159c1.444,0,2.61,0.971,2.61,2.159v7.272h38.117l-0.063-27.662l4.376-0.021
	l-0.039-4.627h4.811l0.005-3.9h36.237l0.024,3.198h4.359l0.004,3.871h1.566L200.979,64.588z M102.129,28.263
	c-0.692,0-1.251,0.559-1.251,1.249c0,0.692,0.559,1.251,1.251,1.251c0.69,0,1.256-0.559,1.256-1.251
	C103.385,28.822,102.819,28.263,102.129,28.263z M141.428,108.716h-3.246l3.212-4.987L141.428,108.716z M114.817,111.167
	c-1.42,0-1.539-2.097-1.539-3.974s0.118-3.975,1.539-3.975s1.539,2.098,1.539,3.975S116.237,111.167,114.817,111.167z
	 M90.217,109.646c0,0.963-0.727,1.521-1.623,1.521c-0.829,0-1.521-0.626-1.521-1.472c0-0.913,0.608-1.402,1.369-1.758
	C89.237,108.175,90.217,108.598,90.217,109.646z M87.174,104.506c0-0.812,0.625-1.387,1.386-1.387c0.693,0,1.42,0.404,1.42,1.251
	c0,0.795-0.507,1.217-1.336,1.69C87.918,105.739,87.174,105.4,87.174,104.506z"/>
<path fill="#FFFFFF" d="M388.321,113.287v8.434c2.743-0.207,5.484-1.386,5.484-4.57
	C393.807,114.113,390.976,113.287,388.321,113.287z M394.781,129.588c-1.13-1.562-2.062-3.166-2.479-3.945
	c-1.385-2.653-1.179-2.477-3.979-2.89v2.948c0,4.011-0.178,5.367,4.57,5.721v0.825h-12.354v-0.825
	c3.508-0.59,3.892-0.384,3.892-5.721v-7.844c0-3.979-0.207-4.541-3.892-4.836v-0.826h9.169c3.628,0,8.522,0,8.522,4.689
	c0,2.329-1.771,4.039-3.834,4.835l3.152,5.781c2.332,3.927,6.538,6.621,11.441,6.793c0.463,0.017,0.923,0.009,1.376-0.021
	c-1.869,0.651-3.909,0.912-6.008,0.69C400.42,134.551,397.018,132.498,394.781,129.588z"/>
<path fill="#FFFFFF" d="M255.194,112.924c2.772,0.561,4.188,0.383,4.275,3.538l0.207,7.136c0.118,3.656-0.619,7.194-5.484,7.194
	c-2.064,0-4.452-0.708-5.632-2.506c-0.943-1.476-0.855-3.804-0.855-5.515v-4.129c0-4.011-0.177-5.365,3.892-5.72v-0.825h-11.676
	v0.825c3.509,0.591,3.892,0.384,3.892,5.72v4.659c0,2.478-0.295,5.337,1.769,7.193c1.74,1.563,4.511,2.153,6.811,2.153
	c2.447,0,5.13-0.619,6.871-2.447c1.709-1.77,1.77-4.424,1.857-6.753l0.206-4.423c0.235-4.924,0.235-5.365,3.065-6.104l1.232-0.01
	l0.105-0.816h-10.539v0.828H255.194z"/>
<path fill="#FFFFFF" d="M274.977,127.047c0,3.98-1.475,3.863-3.627,4.275v0.826h9.672v-0.826c-3.479-0.736-4.127-0.973-4.246-4.6
	c-0.117-3.215-0.266-6.312-0.178-9.613c4.866,5.25,16.1,18.252,16.1,18.252v-16.157c0-4.806,0.147-6.045,2.742-6.28v-0.826h-8.963
	v0.826c3.479,0.473,4.363,0.913,4.422,4.422l0.178,9.377l-0.059,0.06c-4.246-4.953-9.377-9.849-13.093-14.685h-6.78v0.826
	c3.744,0.648,3.832,2.771,3.832,5.809V127.047z"/>
<path fill="#FFFFFF" d="M312.682,118.645c0-5.338,0.384-5.131,3.893-5.721v-0.826h-11.676v0.826c3.509,0.59,3.892,0.383,3.892,5.721
	v6.959c0,5.336-0.383,5.129-3.892,5.72v0.825h11.676v-0.825c-3.509-0.591-3.893-0.384-3.893-5.72V118.645z"/>
<path fill="#FFFFFF" d="M335.109,135.386l6.301-15.474c2.034-4.748,2.742-6.635,5.482-6.988v-0.826h-9.229v0.826
	c3.773,0.59,4.688,0.473,1.504,8.462l-2.565,6.429l-4.099-9.73c-1.856-4.363-1.681-4.363,1.71-5.159V112.1h-10.467v0.825
	c2.3,0.767,2.388,0.591,3.833,3.862L335.109,135.386z"/>
<path fill="#FFFFFF" d="M363.312,122.624c2.564,0,3.951-0.06,4.541,2.831h0.825c-0.147-2.506-0.029-4.982,0.118-7.489h-0.767
	c-0.737,2.683-2.064,2.89-4.602,2.89h-2.506v-7.52h2.152c3.214,0,5.838,0.061,6.045,3.922h0.913l0.561-5.16h-17.455v0.826
	c3.51,0.59,3.893,0.383,3.893,5.721v6.959c0,5.336-0.383,5.129-3.893,5.72v0.825h17.868c0.707-2.211,1.121-4.481,1.062-6.781h-0.886
	c-0.824,3.392-2.477,5.544-6.31,5.544c-3.922,0-3.951-1.386-3.951-4.394v-3.894H363.312z"/>
<path fill="#FFFFFF" d="M439.915,118.645c0-5.338,0.383-5.131,3.892-5.721v-0.826h-11.676v0.826c3.509,0.59,3.893,0.383,3.893,5.721
	v6.959c0,5.336-0.384,5.129-3.893,5.72v0.825h11.676v-0.825c-3.509-0.591-3.892-0.384-3.892-5.72V118.645z"/>
<path fill="#FFFFFF" d="M452.433,117.938c1.209-4.188,3.332-4.602,7.4-4.602v12.268c0,5.336-0.383,5.129-4.423,5.72v0.825h12.738
	v-0.825c-4.04-0.591-4.424-0.384-4.424-5.72v-12.268c4.068,0,6.251,0.413,7.431,4.602l0.826-0.147l-0.68-5.717h-19.018l-0.679,5.717
	L452.433,117.938z"/>
<path fill="#FFFFFF" d="M489.161,123.627l0.531-1.12l3.36-6.222c1.209-2.212,2.418-2.831,4.924-3.361v-0.826h-8.579v0.826
	c2.625,0.678,3.154,0.942,0.647,6.044l-1.592,3.244l-2.565-5.396c-1.71-3.598-0.735-3.361,1.326-3.893v-0.826h-10.23v0.826
	c3.272,0.678,3.655,1.946,4.983,4.629l3.303,6.693v1.355c0,5.338-0.385,5.131-4.275,5.721v0.826h12.441v-0.826
	c-4.45-0.354-4.274-1.711-4.274-5.721V123.627L489.161,123.627z"/>
<path fill="#FFFFFF" d="M416.056,132.648c3.773,0,7.792-1.769,7.792-6.015c0-6.163-9.7-5.839-9.7-10.614
	c0-1.74,1.209-3.066,3.008-3.066c3.037,0,3.744,2.684,4.305,5.102h0.885l0.266-5.131c-1.503-0.885-3.243-1.326-5.013-1.326
	c-3.598,0-7.342,2.182-7.342,6.104c0,5.838,9.701,5.425,9.701,10.408c0,1.916-1.445,3.185-3.392,3.185
	c-3.479,0-5.633-3.272-6.604-6.162l-0.915,0.177l1.016,5.56C411.744,132.007,413.881,132.604,416.056,132.648z"/>
<path fill="#FFFFFF" d="M468.981,36.975c-14.301,0-20.036,13.968-20.036,25.191c0.001,12.887,6.816,29.348,21.781,29.348
	c13.72,0,19.787-13.967,19.787-25.855C490.265,50.942,481.702,36.975,468.981,36.975z M469.645,33.356
	c22.466,0,32.206,15.269,32.206,30.889c0,18.868-13.688,30.89-32.116,30.89c-18.518,0-32.118-12.021-32.118-30.978
	C437.614,45.466,451.304,33.356,469.645,33.356z"/>
<path fill="#FFFFFF" d="M267.395,36.975c-14.299,0-20.037,13.968-20.036,25.191c0,12.886,6.817,29.348,21.782,29.348
	c13.719,0,19.786-13.968,19.786-25.856C288.678,50.942,280.114,36.975,267.395,36.975z M268.059,33.356
	c22.465,0,32.205,15.269,32.205,30.889c0,18.866-13.689,30.89-32.117,30.89c-18.517,0-32.119-12.021-32.119-30.977
	C236.027,45.466,249.717,33.356,268.059,33.356z"/>
<path fill="#FFFFFF" d="M415.671,48.763c0.265-9.062,0.353-11.701,10.908-13.108v-1.319h-29.56v1.319
	c10.558,1.408,10.646,4.047,10.908,13.108v30.965c-0.264,9.062-0.352,11.701-10.908,13.107v1.32h29.56v-1.32
	c-10.558-1.406-10.645-4.046-10.908-13.107V48.763z"/>
<path fill="#FFFFFF" d="M330.103,48.763v9.729h34.986v-9.729c-0.265-9.062-0.353-11.701-10.909-13.108v-1.319h29.561v1.319
	c-10.559,1.408-10.646,4.047-10.909,13.108v30.965c0.264,9.062,0.352,11.701,10.909,13.107v1.32H354.18v-1.32
	c10.558-1.406,10.646-4.046,10.909-13.107V64h-34.986v15.729c0.265,9.062,0.353,11.701,10.909,13.107v1.32h-29.56v-1.32
	c10.557-1.406,10.646-4.046,10.909-13.107V48.763c-0.265-9.062-0.354-11.701-10.909-13.108v-1.319h29.56v1.319
	C330.454,37.062,330.366,39.702,330.103,48.763z"/>
</svg>
