<svg id="Layer_1" data-name="Layer 1" xmlns="http://www.w3.org/2000/svg" viewBox="0 0 685.47 1240.48"><defs><style>.cls-1{fill:none;stroke:#eae8e8;stroke-miterlimit:10;stroke-width:9px;}</style></defs><title>basketball-court</title><rect class="cls-1" x="233.49" y="4.5" width="222.02" height="248"/><rect class="cls-1" x="233.49" y="987.98" width="222.02" height="248"/><path class="cls-1" d="M630.09,1.5V83.06c0,166.24-127.84,301-285.54,301S59,249.3,59,83.06V1.5" transform="translate(-1.5 3)"/><circle class="cls-1" cx="343.25" cy="252.5" r="81.68"/><rect class="cls-1" x="261.57" y="4.5" width="163.35" height="248"/><circle class="cls-1" cx="343.25" cy="620.52" r="81.68"/><path class="cls-1" d="M60,1233v-81.56c0-166.24,127.84-301,285.54-301s285.54,134.76,285.54,301V1233" transform="translate(-1.5 3)"/><circle class="cls-1" cx="343.83" cy="987.98" r="81.68"/><rect class="cls-1" x="263.66" y="984.98" width="163.35" height="248" transform="translate(689.16 2220.96) rotate(180)"/><path class="cls-1" d="M1.5,1233" transform="translate(-1.5 3)"/><path class="cls-1" d="M687,1233" transform="translate(-1.5 3)"/><path class="cls-1" d="M687,1.5" transform="translate(-1.5 3)"/><path class="cls-1" d="M1.5,1.5" transform="translate(-1.5 3)"/><line class="cls-1" y1="620.52" x2="685.47" y2="620.52"/></svg>