<?xml version="1.0" encoding="utf-8"?>
<!-- Generator: Adobe Illustrator 20.1.0, SVG Export Plug-In . SVG Version: 6.00 Build 0)  -->
<svg version="1.1" id="Layer_1" xmlns="http://www.w3.org/2000/svg" xmlns:xlink="http://www.w3.org/1999/xlink" x="0px" y="0px"
	 viewBox="0 0 186.6 201.9" style="enable-background:new 0 0 186.6 201.9;" xml:space="preserve">
<style type="text/css">
	.st0{fill:#CC0033;stroke:#FFFFFF;stroke-width:2;stroke-miterlimit:10;}
	.st1{fill:#002A5D;}
	.st2{fill:#FFFFFF;stroke:#FFFFFF;stroke-width:0.5;stroke-miterlimit:10;}
	.st3{fill:none;}
	.st4{fill:#A8A8A8;}
	.st5{fill:#FFFFFF;}
	.st6{fill:#CC0033;}
</style>
<title>fabo_logo_color</title>
<path class="st0" d="M93.7,200.9c-25.7,0-50-11.8-65.9-32l-3.4,0.4h-0.1c-0.5,0.1-1,0.1-1.5,0.1c-6.3,0-11.7-4.8-12.4-11.1
	c-3-24.3-6.2-48.9-9.3-73.4c-0.8-6.2,3.5-12.7,10.1-15.2c2.2-0.9,4.6-1.7,7-2.6V29.6c0.3-6.4,4-12.2,9.8-15.1
	c41.3-18.1,88.2-18.1,129.5,0c5.8,2.8,9.6,8.6,9.9,15.1v37.1c2.8,1,5.5,2,8.1,3c6.5,2.5,10.8,9,10,15.2c-3.1,24.5-6.3,49.2-9.3,73.4
	c-0.8,6.3-6.1,11-12.4,11.1l0,0c-0.5,0-1,0-1.5-0.1h-0.1l-2.7-0.3C143.6,189.1,119.3,200.8,93.7,200.9z"/>
<path class="st1" d="M173.1,75.8c-4.1-1.6-8.1-3-12.2-4.4V29.6c-0.3-3.9-2.5-7.3-6-9.1c-39.6-17.3-84.6-17.3-124.2,0
	c-3.5,1.7-5.8,5.2-6,9.1v42.1c-3.8,1.2-7.5,2.6-11.2,4c-3.7,1.4-6.3,5.2-5.9,8.3c3,23.7,6.1,48.2,9.2,73.4c0.4,3.3,3.4,5.7,6.7,5.3
	c2.4-0.3,4.8-0.6,7.2-0.9c24.8,34.8,73,42.9,107.8,18.1c7-5,13.1-11.1,18-18c2.2,0.2,4.4,0.5,6.6,0.8c3.3,0.4,6.3-2,6.7-5.3
	c3.2-25.1,6.2-49.6,9.3-73.4C179.4,80.9,176.8,77.2,173.1,75.8z"/>
<path class="st2" d="M93.8,194.5c-14.4,0-28.5-4-40.7-11.5c-8.8-5.4-16.4-12.5-22.4-20.9c-2.3,0.3-4.7,0.6-7.1,0.9
	c-3.4,0.4-6.5-2.1-6.9-5.5c-3.1-25.1-6.2-49.8-9.2-73.4c-0.4-3.2,2.3-7,6-8.4s7.4-2.8,11.1-4v-42c0.2-3.9,2.5-7.5,6.1-9.2
	C70.2,3,115.3,3,154.9,20.4c3.5,1.8,5.8,5.3,6.1,9.2v41.7c4.3,1.4,8.3,2.8,12.1,4.3l0,0c3.7,1.4,6.4,5.2,6.1,8.5
	c-3,23.7-6.1,48.4-9.3,73.4c-0.4,3.4-3.5,5.8-6.9,5.5l-6.4-0.8c-11.1,15.5-27.5,26.3-46.1,30.5C105,193.9,99.4,194.5,93.8,194.5z
	 M30.8,161.7L30.8,161.7c24.8,34.8,73,42.8,107.6,18.1c6.9-5,13-11,18-18l0.1-0.1h0.1l6.6,0.8c3.2,0.3,6.1-2,6.4-5.1
	c3.1-25,6.2-49.7,9.3-73.4c0.4-3.1-2.2-6.7-5.8-8.1l0,0c-3.9-1.5-7.9-2.9-12.2-4.4h-0.1V29.6c-0.3-3.8-2.5-7.2-5.9-8.9
	c-39.5-17.3-84.5-17.3-124.1,0c-3.4,1.7-5.6,5.1-5.9,8.9v42.3h-0.1c-3.7,1.2-7.5,2.6-11.2,4S7.4,81,7.8,84.1
	c3,23.6,6.1,48.3,9.2,73.4c0.4,3.2,3.3,5.5,6.5,5.1C26,162.3,28.4,162,30.8,161.7L30.8,161.7z"/>
<circle class="st3" cx="93.1" cy="113.1" r="51.1"/>
<path class="st4" d="M117.2,158.7L117.2,158.7c14-7.5,23.9-21,26.6-36.7c0.3-1.4,0.7-6.2,0.7-6.2c0.6-12.7-3.5-25.2-11.6-35.1h0.1
	l-1.7-1.9l-0.3-0.4l0,0c-5.1-5.5-11.2-9.8-18.1-12.7l0,0l-0.5-0.2l-2-0.8v0.1c-3.9-1.4-8-2.4-12.1-2.8l0,0
	c-5.6-0.6-11.3-0.2-16.8,1.1c-2.3,0.5-4.6,1.2-6.8,2.1c-11.4,4.4-20.8,12.7-26.7,23.5l0,0l-0.1,0.2c-0.7,1.2-1.2,2.5-1.8,3.8
	c-6.4,14.8-5.6,31.7,2.3,45.7l0,0c0,0,1.5,2.6,2.1,3.4c1.6,2.5,3.5,4.8,5.6,7c5.4,5.7,12.1,10.1,19.5,12.8l0,0l2,0.7l0.6,0.2l0,0
	c9.1,2.8,18.8,3.1,28,0.7c1.7-0.4,3.4-0.9,5-1.6 M142.3,117.7c0,0.4-0.1,0.8-0.1,1.2c0,0.2,0,0.4-0.1,0.6c-0.1,0.3-0.1,0.6-0.1,0.9
	c0,0.2,0,0.4-0.1,0.6c0,0.3-0.1,0.6-0.1,0.9l-0.1,0.6c-0.1,0.3-0.1,0.6-0.2,0.9l-0.1,0.6c-0.1,0.4-0.2,0.7-0.3,1.1l-0.1,0.3
	c-0.1,0.5-0.2,0.9-0.4,1.4c-0.1,0.2-0.1,0.4-0.1,0.5c-0.1,0.3-0.2,0.6-0.3,0.9l-0.2,0.6l-0.3,0.8l-0.2,0.6l-0.3,0.8l-0.2,0.6
	c-0.1,0.3-0.2,0.6-0.4,0.9l-0.2,0.5c-0.2,0.4-0.4,0.9-0.6,1.3l-0.2,0.4c-0.1,0.3-0.3,0.6-0.4,0.9l-0.3,0.6l-0.4,0.8l-0.3,0.6
	l-0.4,0.7l-0.3,0.5l-0.5,0.8l-0.3,0.5c-0.2,0.3-0.4,0.7-0.6,0.9l-0.2,0.3c-0.3,0.4-0.6,0.8-0.8,1.2l-0.3,0.4l-0.6,0.7l-0.4,0.5
	l-0.6,0.7l-0.4,0.5l-0.6,0.7l-0.4,0.4l-0.7,0.8l-0.3,0.3c-0.3,0.4-0.7,0.7-1,1l-0.2,0.2l-0.8,0.8l-0.4,0.4l-0.7,0.7l-0.4,0.4
	l-0.7,0.6l-0.4,0.3l-0.8,0.7l-0.4,0.3l-0.1,0.1l0.3-0.5l0.3-0.5l0.6-0.9l0.2-0.4c0.2-0.4,0.5-0.9,0.8-1.3l0.1-0.1
	c0.2-0.4,0.4-0.8,0.6-1.2c0.1-0.1,0.1-0.3,0.2-0.5s0.3-0.6,0.4-0.9l0.2-0.5c0.1-0.3,0.2-0.6,0.3-0.8l0.2-0.6l0.3-0.8l0.2-0.5
	c0.1-0.3,0.2-0.6,0.2-0.9s0.1-0.3,0.1-0.5c0.1-0.4,0.2-0.8,0.3-1.2v-0.2c0.1-0.4,0.2-0.9,0.3-1.4c0-0.1,0-0.3,0.1-0.4
	c0.1-0.3,0.1-0.6,0.2-0.9l0.1-0.5c0-0.3,0-0.6,0.1-0.8c0-0.2,0-0.4,0.1-0.6c0.1-0.2,0-0.6,0.1-0.8c0-0.2,0-0.4,0-0.5
	c0-0.3,0-0.6,0-0.9V130c0-0.3,0-0.6,0-0.9v-0.5c0-0.3,0-0.5-0.1-0.8c0-0.2,0-0.4,0-0.5c0-0.3-0.1-0.5-0.1-0.8c0-0.2,0-0.4-0.1-0.5
	c0-0.3-0.1-0.5-0.1-0.8c0-0.2,0-0.3-0.1-0.5l-0.1-0.9v-0.4c-0.1-0.4-0.1-0.8-0.2-1.2v-0.2l-0.2-1l-0.1-0.4l-0.1-0.8l-0.1-0.5
	l-0.1-0.8l-0.1-0.5l-0.1-0.8l-0.1-0.4l-0.2-0.8l-0.1-0.3l-0.2-1.1l-0.3-1.7l-0.2-0.8l-0.2-0.8l-0.2-0.8l-0.1-0.8l-0.1-0.7l-0.2-0.8
	l-0.1-0.7l-0.1-0.8l-0.1-0.6l-0.1-0.7l-0.1-0.6L125,104l-0.1-0.4l-0.1-0.8l-0.1-0.4l-0.1-0.8v-0.3l-0.1-0.8v-0.2l-0.1-0.8v-0.2
	c0-0.3,0-0.5-0.1-0.8v-0.1c0-0.3,0-0.5-0.1-0.8l0,0c-0.4-2.4-0.5-4.7-0.4-7.1c0-0.2,0-0.4,0.1-0.6l0.2,0.2l0.8,0.6l1,0.7l0.8,0.6
	c0.3,0.2,0.6,0.5,0.9,0.8l0.8,0.7c0.3,0.3,0.6,0.5,0.9,0.8l0.7,0.7l0.8,0.8l0.7,0.7l0.8,0.8l0.7,0.8c0.2,0.3,0.5,0.6,0.7,0.8
	s0.4,0.5,0.7,0.8c0.2,0.3,0.5,0.6,0.7,0.9l0.6,0.8l0.7,0.9c0.2,0.3,0.4,0.5,0.6,0.8s0.4,0.6,0.6,0.9l0.5,0.8c0.2,0.3,0.4,0.7,0.6,1
	s0.3,0.5,0.4,0.8s0.4,0.7,0.5,1.1s0.3,0.5,0.4,0.8s0.3,0.8,0.5,1.2c0.1,0.2,0.2,0.5,0.3,0.7l0.6,1.4l0.2,0.5c0.2,0.6,0.4,1.3,0.7,2
	c0.1,0.2,0.1,0.3,0.1,0.5c0.1,0.5,0.3,0.9,0.4,1.4c0,0.5,0,0.9-0.1,1.4c0,0.1-0.1,0.2-0.1,0.3L142.3,117.7z M142.3,108.9
	c-0.2-0.5-0.5-1.1-0.7-1.6l-0.1-0.2c-0.3-0.6-0.5-1.1-0.8-1.6l-0.3-0.6c-0.2-0.4-0.4-0.8-0.7-1.2l-0.3-0.6c-0.3-0.4-0.6-0.9-0.8-1.3
	l-0.2-0.4c-0.4-0.6-0.8-1.1-1.2-1.6l-0.3-0.4c-0.3-0.4-0.6-0.8-0.9-1.2l-0.4-0.5c-0.3-0.4-0.6-0.7-0.9-1.1l-0.4-0.5
	c-0.4-0.5-0.9-1-1.4-1.5l0,0c-0.5-0.5-1-1-1.5-1.4l-0.5-0.4c-0.4-0.3-0.7-0.7-1.1-1l-0.5-0.4c-0.4-0.3-0.8-0.7-1.2-1l-0.4-0.3
	c-0.6-0.4-1.1-0.9-1.7-1.3l-0.4-0.3c-0.3-0.2-0.7-0.5-1-0.7v-0.1c0-0.1,0.1-0.3,0.1-0.4c0-0.2,0.1-0.3,0.1-0.4
	c0-0.2,0.1-0.3,0.1-0.4s0.1-0.3,0.1-0.4l0.1-0.4l0.1-0.4l0.2-0.4l0.1-0.3l0.2-0.3l0.2-0.3l0.2-0.3l0.1-0.2L126,83l0.1-0.1
	c0.3-0.4,0.6-0.7,1-1l0.1-0.1l0.3-0.2l0.2-0.1l0.3-0.2l0.2-0.1l0.3-0.1l0.2-0.1l0.3-0.1l0.2-0.1l0.3-0.1h0.5
	c6.9,7.9,11.2,17.8,12.1,28.2L142.3,108.9z M128.4,78.7L128.4,78.7c-0.2,0.1-0.4,0.1-0.6,0.2l0,0l-0.5,0.2h-0.1
	c-0.4,0.2-0.7,0.4-1,0.6l-0.1,0.1c-0.3,0.2-0.6,0.5-0.9,0.8l-0.1,0.1c-0.3,0.3-0.5,0.6-0.8,0.9v0.1c-0.2,0.3-0.5,0.7-0.7,1v0.1
	c-0.1,0.2-0.2,0.3-0.3,0.5l0,0c-0.1,0.2-0.2,0.4-0.2,0.6v0.1l-0.2,0.5v0.1c-0.1,0.2-0.1,0.4-0.2,0.6v0.1l-0.2,0.5v0.1
	c-0.1,0.2-0.1,0.4-0.2,0.6h-0.1c-0.7-0.4-1.3-0.8-2-1.2l-0.4-0.2c-0.7-0.4-1.4-0.7-2.1-1.1l-0.4-0.2c-0.6-0.3-1.3-0.6-2-0.9
	l-0.3-0.2c-0.7-0.3-1.4-0.6-2.2-0.9l-0.2-0.1l0,0v-0.2c0.1-0.6,0.2-1.2,0.3-1.7l0.1-0.4c0.1-0.5,0.2-1,0.2-1.4v-0.3
	c0.1-0.5,0.1-1,0.2-1.6v-0.4c0-0.5,0.1-0.9,0.1-1.4v-0.1c0-0.5,0.1-0.9,0.1-1.4v-1.8c0-0.4,0-0.7,0-1.1v-0.3c0-0.4-0.1-0.8-0.1-1.1
	c-0.1-0.6,0-0.1,0-0.1c5.5,2.6,10.5,6.1,14.8,10.4L128.4,78.7z M98,64.2l0.1-1.1L98,64.2c0.6,0.1,1.1,0.1,1.7,0.2l0.6,0.1l1.1,0.2
	l0.6,0.1l1,0.2l0.7,0.2l1,0.2l0.7,0.2l0.9,0.2l0.7,0.2l0.9,0.3l0.8,0.2l0.9,0.3l0.8,0.3l0.6,0.2l0,0c0.1,0.4,0.1,0.7,0.2,1.1v0.2
	c0,0.4,0.1,0.8,0.1,1.2v3.2c0,0.5,0,1-0.1,1.6V75c-0.1,0.5-0.1,1.1-0.2,1.6v0.3c-0.1,0.6-0.2,1.1-0.2,1.7v0.2
	c-0.1,0.6-0.2,1.2-0.3,1.9l0,0l-0.2-0.1c-0.8-0.3-1.6-0.6-2.4-0.8l-0.5-0.2c-0.8-0.2-1.7-0.5-2.5-0.7h-0.2c-0.8-0.2-1.6-0.4-2.4-0.6
	l-0.4-0.1c-0.8-0.2-1.7-0.3-2.5-0.5H99c0.5-4.4-1.4-8.8-5-11.4c-1.4-1-3.1-1.8-4.8-2.3c3-0.3,5.9-0.2,8.9,0.1L98,64.2z M80.9,65.5
	l0.8-0.2h0.1c4.6,0.1,8.2,1.1,10.8,3c2.9,2.1,4.5,5.7,4.1,9.2c-3.9-0.5-7.8-0.7-11.7-0.6c-5.6,0.2-11.2,1-16.6,2.4
	c-0.8,0.2-1.6,0.4-2.4,0.7l-0.7,0.2c-0.6,0.2-1.1,0.4-1.7,0.6l-0.8,0.3c-0.6,0.2-1.1,0.4-1.7,0.7L60.3,82c-0.8,0.3-1.5,0.7-2.3,1
	l-0.3,0.1c-0.7,0.3-1.3,0.6-2,1l-0.7,0.4c-0.5,0.3-1,0.6-1.5,0.8l-0.8,0.4l-0.5,0.3C58.8,75.9,69.1,68.6,80.9,65.5z M44.9,123.2
	c-0.1-0.2-0.1-0.5-0.1-0.7c-0.1-0.5-0.2-1-0.3-1.6c0-0.3-0.1-0.6-0.1-0.8c-0.1-0.5-0.1-0.9-0.2-1.4c0-0.3-0.1-0.6-0.1-0.9
	s-0.1-0.9-0.1-1.4c0-0.3,0-0.6,0-0.9c0-0.4,0-0.9-0.1-1.3v-2.2c0-0.3,0-0.7,0-1c0-0.4,0-0.9,0.1-1.3c0.1-0.3,0.1-0.7,0.1-1
	c0-0.3,0.1-0.8,0.1-1.3s0.1-0.7,0.1-1s0.1-0.8,0.2-1.2s0.1-0.7,0.2-1s0.2-0.8,0.2-1.2s0.2-0.7,0.2-1s0.2-0.8,0.3-1.2s0.2-0.7,0.3-1
	s0.2-0.8,0.3-1.2s0.2-0.7,0.3-1s0.3-0.8,0.4-1.2s0.3-0.7,0.4-1s0.3-0.8,0.5-1.1s0.3-0.7,0.4-1s0.3-0.7,0.5-1.1s0.3-0.7,0.5-1l0.5-1
	c0.4-0.2,0.7-0.5,1.1-0.7s0.7-0.5,1.1-0.7s0.8-0.5,1.2-0.7l1-0.5c0.4-0.2,0.9-0.5,1.3-0.7l1.1-0.6c0.3-0.2,0.9-0.4,1.4-0.7l1-0.5
	l1.4-0.6c0.3-0.2,0.7-0.3,1-0.4c0.5-0.2,1-0.4,1.5-0.6l1-0.4l1.7-0.6l0.8-0.3c0.8-0.2,1.7-0.5,2.6-0.7c5.3-1.4,10.8-2.1,16.2-2.3
	c3.8-0.1,7.6,0.1,11.3,0.6v0.1c0,0.2-0.1,0.3-0.1,0.5l-0.1,0.2c-0.1,0.2-0.2,0.5-0.2,0.7c-1.8,5.1-9.4,11.1-18.1,18.1
	c-1.4,1.2-3,2.4-4.4,3.6v-0.1l-3.4,2.8l-0.2,0.2l0,0c-4.8,3.9-9.3,8.1-13.5,12.6c-0.3,0.3-0.6,0.6-0.8,0.9l-0.2,0.3l-0.5,0.7
	l-0.3,0.4l-0.5,0.7l-0.3,0.4c-0.2,0.2-0.3,0.5-0.5,0.7l-0.2,0.3c-0.2,0.3-0.4,0.7-0.7,1l0,0c-0.2,0.4-0.4,0.7-0.6,1.1l-0.2,0.3
	c-0.1,0.2-0.3,0.5-0.4,0.8l-0.2,0.4l-0.3,0.8l-0.2,0.4c-0.1,0.3-0.2,0.5-0.3,0.8l-0.1,0.4c-0.1,0.4-0.2,0.8-0.4,1.1v0.1
	c-0.1,0.4-0.2,0.8-0.3,1.2c0,0.1,0,0.3-0.1,0.4c-0.1,0.3-0.1,0.6-0.2,0.9c0,0.2-0.1,0.3-0.1,0.5c-0.1,0.3-0.1,0.6-0.2,0.8
	c0,0.2,0,0.3-0.1,0.5v0.3l-0.1-0.3c-0.2-0.5-0.5-1-0.7-1.6l-0.2-0.5c-0.3-0.6-0.5-1.3-0.8-2l-0.1-0.3c-0.2-0.6-0.4-1.1-0.6-1.7
	l-0.2-0.6c-0.2-0.7-0.4-1.4-0.6-2S45.1,123.9,44.9,123.2L44.9,123.2L44.9,123.2z M61,150.6l-0.7-0.6l-1.1-1l-0.8-0.7
	c-0.3-0.2-0.7-0.6-0.9-0.9s-0.5-0.6-0.8-0.8s-0.6-0.6-0.8-0.9l-0.7-0.9c-0.3-0.3-0.5-0.7-0.8-1c-0.2-0.3-0.5-0.6-0.7-0.9
	s-0.5-0.7-0.8-1l-0.6-0.9c-0.2-0.3-0.5-0.7-0.7-1.1s-0.4-0.6-0.6-0.9s-0.4-0.7-0.6-1c0-0.2,0-0.4,0-0.6v-0.6c0-0.2,0-0.5,0.1-0.7
	c0.1-0.2,0-0.4,0.1-0.6c0-0.2,0.1-0.5,0.1-0.7c0-0.2,0-0.4,0.1-0.6c0-0.2,0.1-0.4,0.1-0.7c0-0.2,0.1-0.4,0.1-0.6
	c0-0.2,0.1-0.4,0.2-0.7c0.1-0.2,0.1-0.4,0.1-0.6s0.1-0.4,0.2-0.7s0.1-0.4,0.2-0.6s0.1-0.4,0.2-0.7s0.1-0.4,0.2-0.6s0.2-0.4,0.2-0.6
	c0.1-0.2,0.1-0.4,0.2-0.5c0.1-0.2,0.2-0.4,0.3-0.6s0.2-0.3,0.2-0.5s0.2-0.4,0.3-0.6l0.2-0.5c0.1-0.2,0.2-0.4,0.3-0.6l0.3-0.5
	c0.1-0.2,0.2-0.4,0.3-0.6s0.2-0.3,0.3-0.5s0.3-0.4,0.4-0.6c0.1-0.2,0.2-0.3,0.3-0.4l0.4-0.6l0.3-0.4c0.2-0.2,0.3-0.4,0.5-0.7
	l0.3-0.3c0.3-0.3,0.5-0.6,0.8-0.9l0.7-0.7c0.7-0.7,1.4-1.4,2.1-2.1l0.1-0.1l0.6-0.6l0.2-0.2l0.6-0.5l0.2-0.2l0.5-0.4l0.3-0.3
	l0.5-0.4l0.4-0.4l0.4-0.4l0.4-0.4l0.4-0.4l0.4-0.4l0.4-0.4l0.4-0.4l0.6-0.5l0.4-0.3l0.6-0.5l0.4-0.3l0.6-0.5l0.4-0.3l0.7-0.6
	l0.3-0.2l0.9-0.8l0.1-0.1l0.2,0.1l0.1-0.3l1.1-0.8l0.8-0.7l1-0.8l0.9-0.7l0.8-0.7l3-2.3c9-7.2,16.8-13.4,18.8-19
	c0.1-0.3,0.2-0.6,0.3-0.9l0.1-0.3c0.1-0.2,0.1-0.4,0.2-0.7V80h0.2c0.8,0.2,1.7,0.3,2.5,0.5l0.4,0.1c0.9,0.2,1.7,0.4,2.6,0.6h0.1
	c0.8,0.2,1.7,0.4,2.5,0.7l0.4,0.1c0.8,0.2,1.6,0.5,2.4,0.8l0.2,0.1l-0.1,0.4l-0.2,0.8l-0.2,1l-0.2,0.8l-0.2,1l-0.2,0.9l-0.2,1
	l-0.2,0.9l-0.2,1l-0.2,1l-0.3,1.1l-0.3,1l-0.3,1.1l-0.3,1.1l-0.3,1.2l-0.3,1.1l-0.4,1.2l-0.3,1.1l-0.4,1.2l-0.4,1.1l-0.4,1.3
	l-0.4,1.2l-0.4,1.4l-0.4,1.2l-0.5,1.4l-0.4,1.2l-0.6,1.6l-0.4,1.1l-0.6,1.7L100,116c-0.3,0.9-0.7,1.9-1,2.8l-0.7,2l-0.2,0.7
	l-0.5,1.3l-0.3,0.8l-0.4,1.2l-0.3,0.8l-0.4,1.1l-0.3,0.8l-0.4,1l-0.3,0.8l-0.4,1l-0.4,0.8l-0.4,0.9l-0.3,0.8l-0.4,0.9l-0.3,0.8
	l-0.4,0.9l-0.3,0.8l-0.4,0.9l-0.3,0.7l-0.4,0.8l-0.3,0.7l-0.4,0.8l-0.3,0.7l-0.4,0.8l-0.3,0.7l-0.4,0.8l-0.3,0.6l-0.4,0.7l-0.3,0.7
	l-0.4,0.7l-0.3,0.6l-0.4,0.7l-0.3,0.6l-0.4,0.7l-0.3,0.6l-0.4,0.6l-0.3,0.6l-0.4,0.6l-0.3,0.5l-0.3,0.6l-0.3,0.5l-0.3,0.5l-0.3,0.5
	l-0.3,0.5l-0.3,0.5l-0.3,0.5l-0.3,0.4l-0.3,0.4l-0.3,0.4l-0.3,0.4l-0.3,0.4l-0.3,0.4l-0.3,0.4l-0.3,0.4l-0.3,0.4l-0.3,0.3l-0.3,0.3
	l-0.3,0.3l-0.3,0.3l-0.3,0.3l-0.3,0.3l-0.1,0.1l-0.8-0.3l-0.9-0.3l-1.1-0.4l-0.9-0.4l-1-0.5l-0.8-0.4l-1.1-0.5l-0.8-0.4l-1.1-0.6
	l-0.8-0.4c-0.4-0.2-0.7-0.4-1.1-0.7l-0.7-0.4l-1.1-0.8l-0.6-0.4l-1.7-1.3C62.3,151.6,61.6,151.1,61,150.6L61,150.6z M103.7,161.3
	l-0.6,0.1l-1.1,0.2l-0.7,0.1l-1,0.2l-0.7,0.1l-1,0.1l-0.7,0.1l-0.9,0.1l-0.7,0.1l-0.9,0.1h-5.7l-1-0.1l-0.7-0.1l-1-0.1l-0.7-0.1
	l-1.1-0.2l-0.6-0.1l-1.3-0.3l-0.3-0.1c-0.6-0.1-1.1-0.2-1.6-0.4l-0.5-0.1l-1-0.3l0.3-0.3l0.2-0.2l0.4-0.5l0.2-0.2l0.5-0.6l0.1-0.1
	c0.4-0.5,0.9-1.1,1.3-1.6l0.2-0.2l0.5-0.7l0.2-0.3l0.4-0.6l0.3-0.4l0.4-0.6l0.3-0.4l0.4-0.6l0.3-0.4l0.4-0.7l0.3-0.4L87,151l0.3-0.5
	l0.4-0.7l0.3-0.5l0.4-0.7l0.3-0.5l0.4-0.8l0.3-0.5l0.4-0.9l0.2-0.4l0.5-1l0.2-0.3c0.5-0.9,0.9-1.9,1.4-2.9l0.2-0.4l0.5-1.1l0.2-0.6
	l0.4-1l0.3-0.6l0.4-1l0.3-0.7l0.4-1l0.3-0.7l0.4-1l0.3-0.7l0.4-1l0.3-0.7l0.4-1l0.3-0.8l0.4-1.1l0.3-0.8l0.4-1.1l0.3-0.8l0.4-1.2
	l0.3-0.7l0.5-1.3l0.2-0.6l0.7-2c0.4-1,0.7-1.9,1-2.8l0.3-0.8l0.7-2l0.3-1l0.6-1.7l0.4-1.1l0.5-1.6l0.4-1.1l0.5-1.4l0.3-1.1l0.4-1.4
	l0.3-1l0.4-1.3l0.3-1l0.4-1.3l0.3-1l0.4-1.2l0.3-1l0.3-1.2l0.3-1l0.3-1.1l0.2-0.9l0.3-1.1l0.2-0.9l0.3-1.1l0.2-0.9l0.2-1l0.2-0.8
	c0.1-0.3,0.2-0.7,0.2-1s0.1-0.6,0.2-0.8v-0.2h0.1c0.7,0.3,1.4,0.6,2.2,0.9l0.4,0.2c0.7,0.3,1.4,0.7,2.1,1L117,86l2,1l0.3,0.2l2,1.2
	l0.2,0.1v0.2c-0.1,0.5-0.2,1-0.2,1.5V91l0,0v5l0.1,0.5v0.3l0.1,0.5v0.3l0.1,0.6v0.3l0.1,0.6v0.4l0.1,0.7l0.1,0.4l0.1,0.7l0.1,0.4
	l0.1,0.7l0.1,0.4l0.1,0.8l0.1,0.5l0.1,0.8l0.1,0.5l0.1,0.8l0.1,0.5l0.2,0.9l0.1,0.6l0.2,1l0.1,0.6l0.2,1l0.1,0.6l0.2,1.2l0.1,0.5
	c0.1,0.6,0.2,1.2,0.3,1.8c0.6,2.8,1.1,5.7,1.4,8.4v0.3c0,0.3,0.1,0.7,0.1,1c0,0.1,0,0.3,0,0.4l0.1,1c0,0.1,0,0.3,0,0.4
	c0,0.3,0.1,0.6,0.1,0.9c0,0.2,0,0.3,0,0.5c0,0.3,0,0.6,0.1,0.9v0.5c0,0.3,0,0.6,0,0.9v4.6c0,0.2,0,0.5-0.1,0.7c0,0.2,0,0.4,0,0.6
	c0,0.2-0.1,0.5-0.1,0.7c0,0.2,0,0.4-0.1,0.7c-0.1,0.2-0.1,0.4-0.1,0.7c0,0.2-0.1,0.4-0.1,0.7s-0.1,0.4-0.1,0.7s-0.1,0.4-0.1,0.7
	c0,0.2-0.1,0.4-0.2,0.7c-0.1,0.2-0.1,0.4-0.2,0.7l-0.2,0.7l-0.2,0.7c-0.1,0.2-0.1,0.4-0.2,0.6s-0.1,0.4-0.2,0.7s-0.2,0.4-0.2,0.6
	s-0.2,0.4-0.2,0.7l-0.2,0.6c-0.1,0.2-0.2,0.4-0.3,0.7c-0.1,0.2-0.2,0.4-0.3,0.6l-0.3,0.7c-0.1,0.2-0.2,0.4-0.3,0.6s-0.2,0.4-0.4,0.7
	l-0.3,0.6c-0.1,0.2-0.2,0.4-0.4,0.7s-0.2,0.4-0.4,0.6s-0.3,0.4-0.4,0.7s-0.3,0.4-0.4,0.6s-0.3,0.4-0.5,0.7c-0.1,0.2-0.3,0.4-0.4,0.5
	c-0.2,0.2-0.3,0.4-0.5,0.7c-0.1,0.2-0.3,0.4-0.5,0.5c-0.2,0.2-0.4,0.4-0.6,0.7l-0.5,0.5c-0.2,0.2-0.4,0.4-0.6,0.7l-0.5,0.5l-0.6,0.6
	l-0.7,0.4l-0.5,0.2l-0.8,0.4l-0.5,0.2l-0.8,0.3l-0.5,0.2l-0.8,0.3l-0.5,0.2l-0.8,0.3l-0.5,0.2L108,160l-0.5,0.2l-0.9,0.3l-0.5,0.1
	l-1.4,0.4c-0.5,0-0.9,0-1.4,0.2L103.7,161.3z"/>
<path class="st5" d="M59,162.4l-6.2,8.6c-1,1.3-2.9,1.6-4.2,0.7c-1.3-1-1.6-2.9-0.7-4.2l0,0l0,0l6.2-8.6c1-1.3,2.9-1.6,4.2-0.7
	C59.7,159.2,60,161.1,59,162.4z M57.4,161.3c0.4-0.4,0.4-1,0-1.3c-0.1-0.1-0.1-0.1-0.2-0.2c-0.4-0.4-0.9-0.3-1.3,0
	c-0.1,0.1-0.1,0.2-0.2,0.2l-6.2,8.5c-0.4,0.4-0.4,0.9,0,1.3c0.1,0.1,0.1,0.1,0.2,0.2c0.4,0.4,1,0.3,1.3,0c0.1-0.1,0.1-0.2,0.2-0.3
	L57.4,161.3z"/>
<path class="st5" d="M59.9,178c-0.1,0.2-0.2,0.2-0.3,0.1l-1.3-0.7c-0.1-0.1-0.2-0.2-0.1-0.4l2.3-7.4c0-0.1,0-0.2-0.1-0.2l-0.4-0.2
	c-0.1-0.1-0.3,0-0.3,0.1l-3.6,6.6c-0.1,0.1-0.2,0.2-0.3,0.1l-1.3-0.7c-0.1-0.1-0.2-0.2-0.1-0.3l7.5-13.6c0.1-0.1,0.2-0.2,0.3-0.1
	l3.1,1.7c1.1,0.6,1.5,2,0.8,3.1l-1.7,3.1c-0.4,0.6-1,1.1-1.8,1.1c-0.1,0-0.2,0.1-0.3,0.3L59.9,178z M63.9,165.6
	c0.3-0.5,0.1-1-0.3-1.3l-0.8-0.4c-0.1-0.1-0.3,0-0.3,0.1l-1.8,3.2c-0.1,0.1,0,0.2,0.1,0.3l0.8,0.4c0.4,0.2,1,0.1,1.2-0.4L63.9,165.6
	z"/>
<path class="st5" d="M71.9,173.5l-2.5,6.2c-0.7,1.8-2.5,1.8-3.8,1.3c-1.5-0.4-2.4-2-2-3.5c0.1-0.2,0.1-0.4,0.2-0.5l3.9-9.7
	c0.4-1.5,2-2.3,3.4-1.9c0.2,0.1,0.4,0.1,0.6,0.2c1.3,0.5,2.6,1.7,2,3.2l-0.5,1.2c-0.1,0.1-0.2,0.2-0.3,0.1l-1.4-0.3
	c-0.1,0-0.2-0.2-0.2-0.3c0,0,0,0,0,0l0,0l0.2-0.6c0.2-0.6-0.2-1.2-0.8-1.4c-0.5-0.2-1.1,0.1-1.3,0.6l0,0l-3.8,9.6
	c-0.2,0.5,0,1.1,0.4,1.3l0.2,0.1c0.5,0.3,1.1,0.1,1.4-0.4c0-0.1,0.1-0.1,0.1-0.2l1.5-3.9c0.1-0.1,0-0.3-0.1-0.3l-0.7-0.3
	c-0.1-0.1-0.2-0.2-0.1-0.3l0,0l0.6-1.4c0-0.1,0.2-0.2,0.3-0.1c0,0,0,0,0,0l0,0l2.6,1C71.9,173.3,72,173.4,71.9,173.5
	C71.9,173.5,71.9,173.5,71.9,173.5L71.9,173.5z"/>
<path class="st5" d="M77,167.9c0.1-0.1,0.2-0.2,0.3-0.2l2.2,0.6c0.1,0,0.2,0.2,0.2,0.3c0,0.1-1.9,15.3-1.9,15.6
	c0,0.2-0.2,0.2-0.3,0.2L76,184c-0.1,0-0.2-0.2-0.2-0.3c0-0.1,0.1-0.6,0.2-1.7c0-0.1,0-0.2-0.1-0.2l-2-0.5c-0.1,0-0.2,0-0.2,0.1
	L73,183c0,0.1-0.2,0.2-0.3,0.2l-1.4-0.4c-0.1,0-0.2-0.1-0.2-0.2c0,0,0-0.1,0-0.1L77,167.9z M74.7,179.6L76,180c0.1,0,0.2,0,0.2-0.1
	l1.6-9.6l-3.3,9.2C74.5,179.5,74.6,179.6,74.7,179.6L74.7,179.6L74.7,179.6L74.7,179.6z"/>
<path class="st5" d="M87.4,170c0-0.1,0.1-0.2,0.3-0.2l1.5,0.2c0.1,0,0.2,0.1,0.2,0.3l-2,15.4c0,0.1-0.2,0.2-0.3,0.2l-1.4-0.2
	c-0.1,0-0.2-0.1-0.3-0.3c-0.2-1.1-1.1-6.7-1.6-10.1l-1.3,9.7c0,0.1-0.1,0.2-0.3,0.2l-1.5-0.2c-0.1,0-0.2-0.1-0.2-0.3l2-15.5
	c0-0.1,0.2-0.2,0.3-0.2l1.5,0.2c0.1,0,0.2,0.1,0.2,0.1l1.5,10.6L87.4,170z"/>
<path class="st5" d="M91.2,170.3c0-0.2,0.1-0.3,0.3-0.3h0h1.4c0.2,0,0.3,0.1,0.3,0.3l0,0l0,0l-0.4,15.4c0,0.2-0.1,0.3-0.3,0.3h0
	h-1.4c-0.2,0-0.3-0.1-0.3-0.3l0,0l0,0L91.2,170.3z"/>
<path class="st5" d="M98.8,171.9l-3.2,0.2c-0.2,0-0.3-0.1-0.3-0.3l-0.1-1.3c0-0.2,0.1-0.3,0.2-0.4h0.1l4.7-0.3
	c0.2,0,0.3,0.1,0.4,0.3l0.7,0.9c0.1,0.2,0.2,0.4,0.1,0.6l-3.7,12.1c0,0.2,0.1,0.3,0.2,0.4h0.1l3.5-0.2c0.2,0,0.3,0.1,0.3,0.3
	l0.1,1.3c0,0.2-0.1,0.3-0.2,0.4h-0.1l-4.9,0.3c-0.3,0-0.5-0.2-0.6-0.4l-0.6-0.8c-0.1-0.2-0.2-0.5-0.1-0.7l3.7-11.9
	c0-0.2-0.1-0.3-0.2-0.3C98.9,171.9,98.9,171.9,98.8,171.9L98.8,171.9z"/>
<path class="st5" d="M103.7,169.6c0-0.1,0.1-0.3,0.2-0.3l2.2-0.4c0.1,0,0.2,0.1,0.3,0.2c0,0.1,4.7,14.6,4.8,14.9s0,0.3-0.2,0.3
	l-1.5,0.3c-0.1,0-0.2-0.1-0.3-0.2c0-0.1-0.2-0.5-0.6-1.6c0-0.1-0.1-0.1-0.2-0.1l0,0l-2,0.4c-0.1,0-0.1,0.1-0.1,0.2l0.1,1.7
	c0,0.1-0.1,0.3-0.2,0.3l-1.4,0.3c-0.1,0-0.3,0-0.3-0.2L103.7,169.6z M106.5,181.1l1.4-0.2c0.1,0,0.1-0.1,0.1-0.2c0,0,0,0,0,0
	l-2.6-9.4l0.9,9.7C106.3,181.1,106.4,181.1,106.5,181.1C106.5,181.1,106.5,181.1,106.5,181.1L106.5,181.1L106.5,181.1z"/>
<path class="st5" d="M115.3,166.6l0.4,1.4c0,0.1,0,0.3-0.2,0.3l-1.9,0.6c-0.1,0-0.2,0.2-0.2,0.3l4,13c0,0.1,0,0.3-0.2,0.3l-1.4,0.4
	c-0.1,0-0.3,0-0.3-0.2l-4-13c0-0.1-0.2-0.2-0.3-0.2l-1.9,0.6c-0.1,0-0.3,0-0.3-0.2l-0.4-1.4c0-0.1,0-0.3,0.2-0.3l6.1-1.9
	C115.1,166.3,115.3,166.4,115.3,166.6z"/>
<path class="st5" d="M116.5,166.1c-0.1-0.1,0-0.3,0.1-0.4l0,0l1.2-0.5c0.1-0.1,0.3,0,0.4,0.1l0,0l5.9,14.2c0.1,0.1,0,0.3-0.1,0.4
	l0,0l-1.2,0.5c-0.1,0.1-0.3,0-0.4-0.1l0,0L116.5,166.1z"/>
<path class="st5" d="M126.3,164l5,9.3c0.8,1.5,0.2,3.3-1.2,4.1s-3.3,0.2-4.1-1.2l0,0l0,0l-5-9.3c-0.8-1.5-0.2-3.3,1.2-4.1
	S125.5,162.5,126.3,164L126.3,164z M124.6,165c-0.2-0.5-0.7-0.7-1.2-0.6c-0.1,0-0.2,0.1-0.2,0.1c-0.5,0.2-0.7,0.7-0.6,1.2
	c0,0.1,0.1,0.2,0.2,0.3l4.9,9.2c0.2,0.5,0.8,0.8,1.3,0.6l0.1-0.1c0.5-0.2,0.7-0.7,0.5-1.2c0-0.1-0.1-0.2-0.1-0.3L124.6,165z"/>
<path class="st5" d="M130.3,158.3c-0.1-0.1-0.1-0.2,0-0.3c0,0,0,0,0,0l0,0l1.2-0.9c0.1-0.1,0.3-0.1,0.4,0.1l9,12.6
	c0.1,0.1,0,0.3-0.1,0.3l-1.1,0.8c-0.1,0.1-0.3,0.1-0.4,0c-0.9-0.7-5.4-4.1-8-6.3l5.7,8c0.1,0.1,0.1,0.2,0,0.3c0,0,0,0,0,0l0,0
	l-1.2,0.9c-0.1,0.1-0.3,0.1-0.4-0.1l-9-12.6c-0.1-0.1,0-0.3,0.1-0.3l1.2-0.9c0.1-0.1,0.2-0.1,0.2,0l8.2,6.7L130.3,158.3z"/>
<rect x="22.3" y="87.1" class="st6" width="142.8" height="28.8"/>
<path class="st5" d="M157,148.8c-41.5-6.6-83.8-6.6-125.4,0l-5.1-32c44.9-7.1,90.6-7.1,135.5,0L157,148.8z"/>
<path class="st6" d="M33.9,121.2c0-0.2,0.1-0.5,0.4-0.5l0,0c1.7-0.3,3.5-0.5,5.2-0.8c1.7-0.2,3.3,1,3.6,2.8l0,0l0.5,4
	c0.2,1-0.2,2.1-1.1,2.7c1,0.4,1.7,1.3,1.8,2.4l0.9,6.6c0.2,1.7-0.9,3.2-2.5,3.6c-1.6,0.2-3.3,0.5-4.9,0.7c-0.2,0.1-0.5-0.1-0.5-0.3
	c0,0,0,0,0-0.1L33.9,121.2z M38.5,128.9l1.2-0.2c0.7-0.2,1.1-0.9,1-1.6l-0.5-3.1c-0.1-0.7-0.7-1.3-1.4-1.2l0,0l-1.3,0.2
	c-0.2,0-0.4,0.2-0.4,0.4l0,0l0,0l0.8,5C38,128.7,38.2,128.9,38.5,128.9C38.4,128.8,38.4,128.8,38.5,128.9L38.5,128.9L38.5,128.9z
	 M40.1,139.6l1.2-0.2c0.7-0.2,1.1-0.9,0.9-1.6l-0.7-5.2c0-0.7-0.7-1.3-1.4-1.2l-1.2,0.2c-0.2,0-0.4,0.2-0.4,0.5l0,0l1.1,7.1
	C39.5,139.5,39.7,139.6,40.1,139.6L40.1,139.6L40.1,139.6z"/>
<path class="st6" d="M48.7,119c0-0.2,0.1-0.3,0.3-0.4l3.3-0.4c0.2,0,0.3,0.1,0.4,0.3c0.1,0.1,5.1,20.7,5.2,21.2
	c0.1,0.3-0.1,0.4-0.3,0.4l-2.1,0.2c-0.2,0-0.3-0.1-0.4-0.3c-0.1-0.2-0.2-0.8-0.6-2.3c0-0.1-0.2-0.2-0.3-0.2l-2.8,0.3
	c-0.1,0-0.2,0.1-0.2,0.2c0,0.8,0,1.6-0.1,2.4c0,0.2-0.1,0.4-0.3,0.4l-2.1,0.2c-0.2,0-0.4,0-0.4-0.3C48.5,133.6,48.5,126.3,48.7,119z
	 M51.6,135.3l2-0.2c0.1,0,0.2-0.1,0.2-0.2l0,0c-0.9-4.4-1.8-8.9-2.8-13.3c0.1,4.5,0.2,9,0.3,13.6C51.3,135.2,51.4,135.3,51.6,135.3
	C51.5,135.3,51.5,135.3,51.6,135.3L51.6,135.3L51.6,135.3z"/>
<path class="st6" d="M63.2,119.8c-1,0.1-1.7,1-1.6,2l0,0c0,0.1,0,0.1,0,0.2c0.4,4.1,7.2,6.2,7.6,11.8c0.2,2.2-1,5.7-4.5,6
	c-2.6,0.2-4.7-1.3-5-4.7l-0.1-0.8c0-0.2,0.2-0.3,0.4-0.4l2-0.2c0.2,0,0.4,0.1,0.4,0.3l0.1,0.7c0.1,1.6,1.1,2.4,2.2,2.3
	s1.8-1.1,1.7-3.2c-0.3-4.5-7.3-6-7.8-11.6c-0.3-2.6,1.6-4.9,4.1-5.2h0.2c2.5-0.3,4.8,1.5,5.1,4v0.1c0,0.2-0.1,0.3-0.3,0.4l0,0
	l-2.2,0.2c-0.2,0-0.4-0.1-0.4-0.3C65,120.5,64.2,119.8,63.2,119.8L63.2,119.8z"/>
<path class="st6" d="M82,138c0.2,0.4,0,0.5-0.3,0.5l-1.9,0.1c-0.3,0-0.5-0.2-0.6-0.4c-1.3-3.3-2.7-6.7-4.2-10l0.6,10.2
	c0,0.2-0.2,0.4-0.4,0.4c0,0,0,0,0,0l0,0l-1.7,0.1c-0.2,0-0.5-0.1-0.5-0.4l-1.3-21.4c0-0.3,0.2-0.5,0.5-0.5l1.8-0.1
	c0.3,0,0.5,0.2,0.5,0.4c0,0,0,0,0,0l0,0l0.5,8.9c1-3.1,2.6-8.2,3-9.1c0.1-0.3,0.2-0.5,0.4-0.5l2.2-0.1c0,0,0.4,0,0.3,0.5
	c-1.2,3.3-2.4,6.6-3.5,9.9C78.9,130.4,80.4,134.2,82,138z"/>
<path class="st6" d="M88.4,135.6l4.7-0.1c0.2,0,0.4,0.2,0.4,0.4c0,0,0,0,0,0l0,0l0,0v1.9c0,0.3-0.2,0.5-0.4,0.5c0,0,0,0,0,0l0,0
	c-2.5,0-5,0-7.4,0.1c-0.3,0-0.5-0.2-0.5-0.5c0,0,0,0,0,0l0,0l-0.6-21.4c0-0.2,0.2-0.4,0.4-0.4l0,0c2.6-0.1,5.3-0.1,7.9-0.1
	c0.2,0,0.5,0.2,0.5,0.4c0,0,0,0,0,0l0,0v1.9c0,0.2-0.2,0.4-0.4,0.4l0,0c-1.7,0-3.3,0-5,0.1c-0.2,0-0.4,0.2-0.5,0.4l0,0l0.1,5.8
	c0,0.2,0.2,0.4,0.4,0.4c0,0,0,0,0,0l0,0l3.9-0.1c0.2,0,0.4,0.2,0.5,0.4v1.9c0,0.2-0.2,0.4-0.4,0.4c0,0,0,0,0,0l0,0
	c-1.3,0-2.6,0-3.9,0.1c-0.2,0-0.4,0.2-0.4,0.4v0.1l0.1,6.5C87.9,135.4,88.1,135.6,88.4,135.6z"/>
<path class="st6" d="M106.2,116.5l-0.1,2.1c0,0.2-0.2,0.3-0.4,0.3l-2.9-0.1c-0.2,0-0.4,0.1-0.4,0.3l-0.4,18.8c0,0.2-0.1,0.3-0.3,0.3
	c0,0,0,0,0,0h-2.1c-0.2,0-0.3-0.2-0.3-0.3l0.2-18.9c0-0.2-0.2-0.4-0.4-0.4l0,0h-2.9c-0.2,0-0.4-0.2-0.4-0.4l0,0l0,0v-2.1
	c0-0.2,0.2-0.3,0.4-0.3c0,0,0,0,0,0l0,0c3.2,0,6.3,0.1,9.4,0.2C106,116.1,106.2,116.3,106.2,116.5
	C106.2,116.4,106.2,116.4,106.2,116.5C106.2,116.5,106.2,116.5,106.2,116.5z"/>
<path class="st6" d="M109.8,116.7c0-0.2,0.2-0.4,0.5-0.4l0,0l5.2,0.2c1.8,0.1,3.1,1.6,3,3.4c0,0,0,0,0,0l0,0l-0.2,4
	c0,1.1-0.6,2-1.6,2.4c0.9,0.5,1.4,1.6,1.3,2.7l-0.4,6.6c-0.1,1.7-1.5,3-3.2,3.1c-1.6-0.1-3.3-0.2-4.9-0.2c-0.2,0-0.4-0.2-0.4-0.4
	V138L109.8,116.7z M112.8,125.1l1.3,0.1c0.7,0,1.2-0.6,1.3-1.3l0.2-3.1c0.1-0.7-0.4-1.4-1.1-1.4c0,0,0,0,0,0l0,0l-1.3-0.1
	c-0.2,0-0.5,0.2-0.5,0.4l0,0l-0.2,5C112.3,124.8,112.5,125,112.8,125.1L112.8,125.1L112.8,125.1z M112.2,135.9l1.2,0.1
	c0.7-0.1,1.2-0.6,1.2-1.3l0.3-5.2c0.1-0.7-0.4-1.4-1.1-1.4c0,0,0,0,0,0l0,0l-1.2-0.1c-0.2,0-0.5,0.2-0.5,0.4c0,0,0,0,0,0l0,0
	l-0.4,7.1C111.8,135.7,112,135.9,112.2,135.9C112.2,135.9,112.2,135.9,112.2,135.9L112.2,135.9L112.2,135.9z"/>
<path class="st6" d="M124.7,117.4c0.1-0.2,0.2-0.3,0.4-0.3l3.3,0.3c0.2,0,0.3,0.2,0.3,0.4c0,0.2,1,21.3,1,21.8
	c0,0.3-0.1,0.3-0.4,0.3l-2.1-0.2c-0.2,0-0.3-0.2-0.3-0.4s-0.1-0.8-0.2-2.4c0-0.1-0.1-0.2-0.2-0.2l-2.8-0.2c-0.1,0-0.2,0.1-0.2,0.2
	L123,139c0,0.2-0.2,0.3-0.4,0.3l-2.1-0.1c-0.2,0-0.4-0.1-0.3-0.4C121.7,131.7,123.1,124.5,124.7,117.4z M124.4,134l2,0.2
	c0.1,0,0.2-0.1,0.2-0.2c0,0,0,0,0,0l0,0c0-4.5-0.1-9-0.1-13.6c-0.8,4.5-1.6,8.9-2.3,13.4C124.2,133.9,124.3,134,124.4,134L124.4,134
	L124.4,134z"/>
<path class="st6" d="M141.1,138.4c0.2,0,0.4,0.2,0.4,0.5l0,0l-0.2,1.8c0,0.2-0.1,0.4-0.4,0.4h-0.1c-2.5-0.3-5-0.6-7.4-0.9
	c-0.2-0.1-0.4-0.3-0.4-0.5l2.2-21.5c0,0,0-0.2,0.3-0.2l2.4,0.2c0.1,0,0.2,0.1,0.2,0.2c0,0,0,0,0,0l0,0l-2.1,18.8
	c0,0.2,0.1,0.5,0.4,0.5l0,0L141.1,138.4z"/>
<path class="st6" d="M152.8,140c0.2,0,0.4,0.2,0.4,0.5l0,0l0,0l-0.3,1.8c0,0.2-0.2,0.4-0.4,0.4h-0.1c-2.5-0.4-4.9-0.8-7.4-1.1
	c-0.2-0.1-0.4-0.3-0.4-0.5l2.9-21.4c0,0,0-0.2,0.3-0.2l2.4,0.3c0.1,0,0.2,0.1,0.2,0.2c0,0,0,0,0,0l-2.7,18.7c0,0.2,0.1,0.5,0.4,0.5
	l0,0L152.8,140z"/>
<path class="st5" d="M32.8,95v1.2c0,0.2-0.1,0.3-0.3,0.3l0,0h-2.3c-0.2,0-0.3,0.1-0.3,0.3l0,0l0,0v1.8c0,0.2,0.1,0.3,0.3,0.3h0h1.7
	c0.2,0,0.3,0.1,0.3,0.3l0,0l0,0v1.1c0,0.2-0.1,0.3-0.3,0.3h0h-1.7c-0.2,0-0.3,0.1-0.3,0.3c0,0,0,0,0,0l0,0v6.5
	c0,0.2-0.1,0.3-0.3,0.3h-1.2c-0.2,0-0.3-0.1-0.3-0.3c0,0,0,0,0,0l0,0V95c0-0.2,0.1-0.3,0.3-0.3h0h4.1C32.7,94.7,32.8,94.8,32.8,95
	C32.8,95,32.8,95,32.8,95z"/>
<path class="st5" d="M40.6,107.7h-1.4c-0.1,0-0.2-0.1-0.3-0.2s-0.2-0.8-0.3-1c-0.2-0.9-0.6-2.4-1.3-4.8c0-0.1-0.1-0.2-0.2-0.2h-0.5
	c-0.1,0-0.2,0.1-0.2,0.2c0,0,0,0,0,0l0,0v5.7c0,0.1-0.1,0.2-0.2,0.2c0,0,0,0,0,0h-1.3c-0.1,0-0.2-0.1-0.2-0.2V95
	c0-0.1,0.1-0.2,0.2-0.2h3.3c1.2,0,2.1,1,2.1,2.2v2.5c0,0.7-0.4,1.4-1,1.8c-0.1,0.1-0.1,0.2-0.1,0.3c0.5,2.1,1,3.9,1.6,5.9
	C40.9,107.7,40.7,107.7,40.6,107.7z M38.5,97.6c0-0.5-0.4-0.9-0.9-0.9h-1c-0.1,0-0.2,0.1-0.2,0.2c0,0,0,0,0,0l0,0v2.7
	c0,0.1,0.1,0.2,0.2,0.2h1c0.5,0,0.9-0.4,0.9-0.9V97.6z"/>
<path class="st5" d="M44.8,96.8v2c0,0.2,0.1,0.3,0.3,0.3c0,0,0,0,0,0h1.7c0.2,0,0.3,0.1,0.3,0.3l0,0l0,0v1.1c0,0.2-0.1,0.3-0.3,0.3
	c0,0,0,0,0,0h-1.7c-0.2,0-0.3,0.1-0.3,0.3c0,0,0,0,0,0l0,0v4.6c0,0.2,0.1,0.3,0.3,0.3c0,0,0,0,0,0h2.3c0.2,0,0.3,0.1,0.3,0.3v1.1
	c0,0.2-0.1,0.3-0.3,0.3c0,0,0,0,0,0h-4.1c-0.2,0-0.3-0.1-0.3-0.3c0,0,0,0,0,0l0,0V95c0-0.2,0.1-0.3,0.3-0.3c0,0,0,0,0,0h4.1
	c0.2,0,0.3,0.1,0.3,0.3l0,0l0,0v1.2c0,0.2-0.1,0.3-0.3,0.3c0,0,0,0,0,0h-2.3C44.9,96.5,44.8,96.6,44.8,96.8
	C44.8,96.8,44.8,96.8,44.8,96.8C44.8,96.8,44.8,96.8,44.8,96.8z"/>
<path class="st5" d="M49.4,95.1c0-0.2,0.1-0.3,0.3-0.3c0,0,0,0,0,0h2.8c1.2,0,2.1,1,2.1,2.2v8.7c0,1.2-1,2.1-2.2,2.1h-2.7
	c-0.2,0-0.3-0.1-0.3-0.3c0,0,0,0,0,0V95.1z M51.5,106h0.5c0.5,0,0.9-0.4,0.9-0.9v-7.7c0-0.5-0.4-0.9-0.9-0.9h-0.6
	c-0.1,0-0.2,0.1-0.2,0.2c0,0,0,0,0,0l0,0v9C51.2,105.9,51.4,106,51.5,106z"/>
<path class="st5" d="M58.6,96.8v2c0,0.2,0.1,0.3,0.3,0.3c0,0,0,0,0,0h1.7c0.2,0,0.3,0.1,0.3,0.3l0,0l0,0v1.1c0,0.2-0.1,0.3-0.3,0.3
	c0,0,0,0,0,0h-1.7c-0.2,0-0.3,0.1-0.3,0.3c0,0,0,0,0,0l0,0v4.6c0,0.2,0.1,0.3,0.3,0.3c0,0,0,0,0,0h2.3c0.2,0,0.3,0.1,0.3,0.3v1.1
	c0,0.2-0.1,0.3-0.3,0.3c0,0,0,0,0,0h-4.1c-0.2,0-0.3-0.1-0.3-0.3c0,0,0,0,0,0l0,0V95c0-0.2,0.1-0.3,0.3-0.3c0,0,0,0,0,0h4.1
	c0.2,0,0.3,0.1,0.3,0.3l0,0l0,0v1.2c0,0.2-0.1,0.3-0.3,0.3c0,0,0,0,0,0h-2.3C58.7,96.5,58.6,96.6,58.6,96.8
	C58.6,96.8,58.6,96.8,58.6,96.8z"/>
<path class="st5" d="M69.2,107.7h-1.4c-0.1,0-0.2-0.1-0.3-0.2s-0.2-0.8-0.3-1c-0.2-0.9-0.6-2.4-1.3-4.8c0-0.1-0.1-0.2-0.2-0.2h-0.5
	c-0.1,0-0.2,0.1-0.2,0.2c0,0,0,0,0,0l0,0v5.7c0,0.1-0.1,0.2-0.2,0.2c0,0,0,0,0,0h-1.3c-0.1,0-0.2-0.1-0.2-0.2V95
	c0-0.1,0.1-0.2,0.2-0.2h3.3c1.2,0,2.1,1,2.1,2.2v2.5c0,0.7-0.4,1.4-1,1.8c-0.1,0.1-0.1,0.2-0.1,0.3c0.6,2.1,1,3.9,1.6,5.9
	C69.5,107.7,69.3,107.7,69.2,107.7z M67.1,97.6c0-0.5-0.4-0.9-0.9-0.9h-1c-0.1,0-0.2,0.1-0.2,0.2c0,0,0,0,0,0l0,0v2.7
	c0,0.1,0.1,0.2,0.2,0.2h1c0.5,0,0.9-0.4,0.9-0.9V97.6z"/>
<path class="st5" d="M71.6,95c0-0.2,0.1-0.3,0.3-0.3h0h1.2c0.2,0,0.3,0.1,0.3,0.3v0l0,0v12.4c0,0.2-0.1,0.3-0.3,0.3h0h-1.2
	c-0.2,0-0.3-0.1-0.3-0.3v0l0,0L71.6,95z"/>
<path class="st5" d="M79.3,97.9v-0.6c0.1-0.5-0.2-0.9-0.7-1c-0.1,0-0.2,0-0.3,0c-0.8,0-0.9,0.5-0.9,1v7.7c0,0.5,0.2,1,0.9,1
	c0.5,0.1,0.9-0.3,1-0.8c0-0.1,0-0.1,0-0.2v-0.8c0-0.1,0.1-0.2,0.2-0.2h1.3c0.1,0,0.2,0.1,0.2,0.2c0,0,0,0,0,0v1.2
	c0,1.4-1.1,2.4-2.5,2.4c0,0,0,0,0,0h-0.2c-1.4,0.1-2.7-0.9-2.8-2.3c0-0.2,0-0.3,0-0.5v-7.6c-0.1-1.4,0.9-2.7,2.3-2.8
	c0.2,0,0.3,0,0.5,0c1.2,0,2.8,0.6,2.8,2.2V98c0,0.1-0.1,0.2-0.2,0.2c0,0,0,0,0,0h-1.3C79.4,98.2,79.3,98.1,79.3,97.9
	C79.3,98,79.3,97.9,79.3,97.9z"/>
<path class="st5" d="M88.9,107.4c0.1,0.3,0,0.3-0.2,0.3h-1.2c-0.2,0-0.3-0.1-0.4-0.3c-0.2-0.6-1.7-3.7-2.5-5.9v5.9
	c0,0.2-0.1,0.3-0.3,0.3c0,0,0,0,0,0h-1.1c-0.2,0-0.3-0.1-0.3-0.3V95.1c0-0.2,0.1-0.3,0.3-0.3h1.1c0.2,0,0.3,0.1,0.3,0.3c0,0,0,0,0,0
	l0,0v5c0.8-2.1,2-4.4,2.2-5c0.1-0.2,0.2-0.3,0.3-0.3h1.3c0,0,0.3,0,0.2,0.3l-2.5,5.5L88.9,107.4z"/>
<path class="st5" d="M92.6,96.4c-0.5,0-0.9,0.3-0.9,1.1c0,2.4,3.7,3.9,3.7,7.2c0,1.3-0.8,3.3-2.8,3.3c-1.5,0-2.6-1-2.7-3v-0.4
	c0-0.1,0.1-0.2,0.2-0.2c0,0,0,0,0,0h1.3c0.1,0,0.2,0.1,0.2,0.2v0.4c0,0.9,0.5,1.3,1,1.3s1-0.4,1-1.6c0-2.6-3.7-3.8-3.7-7.1
	c-0.1-1.5,1.1-2.7,2.5-2.8c0,0,0,0,0,0h0.1c1.4,0,2.6,1.2,2.6,2.6c0,0,0,0,0,0l0,0c0,0.1-0.1,0.2-0.2,0.2h-1.3
	c-0.1,0-0.2-0.1-0.2-0.2C93.5,96.7,93.1,96.4,92.6,96.4C92.6,96.4,92.6,96.4,92.6,96.4L92.6,96.4z"/>
<path class="st5" d="M97.1,95c0-0.2,0.1-0.3,0.3-0.3h0h2.8c1.2,0.1,2,1.1,2,2.2v1.8c0.1,0.7-0.3,1.4-0.9,1.7c0.6,0.3,1,1,0.9,1.8
	v3.2c0,1.1-0.9,2.1-2,2.2h-2.9c-0.2,0-0.3-0.1-0.3-0.3c0,0,0,0,0,0l0,0L97.1,95L97.1,95z M99.2,99.9h0.6c0.5-0.1,0.8-0.5,0.8-0.9
	v-1.6c0-0.5-0.3-0.9-0.8-0.9h-0.6c-0.2,0-0.3,0.1-0.3,0.3v0l0,0v2.9C98.9,99.8,99,99.9,99.2,99.9z M99.2,106.1h0.6
	c0.5-0.1,0.8-0.5,0.8-0.9v-2.7c0-0.5-0.3-0.9-0.8-0.9h-0.6c-0.2,0-0.3,0.1-0.3,0.3v0l0,0v4C98.9,105.9,99.1,106,99.2,106.1
	L99.2,106.1z"/>
<path class="st5" d="M109.7,105.1c0.1,1.5-1,2.8-2.5,2.9c-1.5,0.1-2.8-1-2.9-2.5c0-0.2,0-0.3,0-0.5V95c0-0.2,0.2-0.2,0.2-0.2h1.3
	c0.1,0,0.2,0.1,0.2,0.2c0,0,0,0,0,0l0,0v10c0,0.5,0.2,1.2,0.9,1.2s0.9-0.7,0.9-1.2V95c0-0.2,0.2-0.2,0.2-0.2h1.3
	c0.1,0,0.2,0.1,0.2,0.2c0,0,0,0,0,0l0,0L109.7,105.1L109.7,105.1z"/>
<path class="st5" d="M117.8,107.7h-1.4c-0.1,0-0.2-0.1-0.3-0.2s-0.2-0.8-0.3-1c-0.2-0.9-0.6-2.4-1.3-4.8c0-0.1-0.1-0.2-0.2-0.2h-0.5
	c-0.1,0-0.2,0.1-0.2,0.2c0,0,0,0,0,0l0,0v5.7c0,0.1-0.1,0.2-0.2,0.2c0,0,0,0,0,0h-1.3c-0.1,0-0.2-0.1-0.2-0.2V95
	c0-0.1,0.1-0.2,0.2-0.2h3.3c1.2,0,2.1,1,2.1,2.2v2.5c0,0.7-0.4,1.4-1,1.8c-0.1,0.1-0.1,0.2-0.1,0.3c0.6,2.1,1,3.9,1.6,5.9
	C118.1,107.7,117.9,107.7,117.8,107.7z M115.7,97.6c0-0.5-0.4-0.9-0.9-0.9h-1c-0.1,0-0.2,0.1-0.2,0.2c0,0,0,0,0,0l0,0v2.7
	c0,0.1,0.1,0.2,0.2,0.2h1c0.5,0,0.9-0.4,0.9-0.9V97.6z"/>
<path class="st5" d="M125.3,100.1v5.4c0,1.3-1.1,2.4-2.4,2.4c0,0,0,0,0,0h-0.2c-1.4,0.1-2.6-1-2.7-2.4c0-0.1,0-0.3,0-0.4v-7.6
	c-0.2-1.4,0.8-2.7,2.2-2.9c0.2,0,0.3,0,0.5,0c1.1,0,2.6,0.6,2.6,2.1v0.8c0,0.1-0.1,0.2-0.2,0.2h-1.2c-0.1,0-0.2-0.1-0.3-0.2v-0.2
	c0-0.5-0.2-1-0.9-1s-0.9,0.6-0.9,1v7.8c0,0.5,0.1,1,0.9,1s0.9-0.6,0.9-1v-3.4c0-0.1-0.1-0.2-0.2-0.2c0,0,0,0,0,0h-0.6
	c-0.1,0-0.2-0.1-0.2-0.2c0,0,0,0,0,0v-1.2c0-0.1,0.1-0.2,0.2-0.2c0,0,0,0,0,0h2.4C125.2,99.9,125.3,100,125.3,100.1z"/>
<path class="st5" d="M133.9,95c0-0.1,0.1-0.2,0.2-0.2h2.1c0.1,0,0.2,0.1,0.2,0.2s1.9,12.2,1.9,12.5s-0.1,0.2-0.2,0.2h-1.4
	c-0.1,0-0.2-0.1-0.2-0.2s-0.1-0.5-0.2-1.6c0-0.1-0.1-0.2-0.2-0.2h-1.9c-0.1,0-0.1,0.1-0.1,0.2l-0.2,1.6c0,0.1-0.1,0.2-0.2,0.2h-1.4
	c-0.1,0-0.3,0-0.2-0.2L133.9,95z M134.5,104h1.3c0.1,0,0.1-0.1,0.1-0.2l0,0l-0.8-7l-0.8,7C134.3,103.9,134.4,104,134.5,104z"/>
<path class="st5" d="M146.1,107.7h-1.4c-0.1,0-0.2-0.1-0.3-0.2s-0.2-0.8-0.3-1c-0.2-0.9-0.6-2.4-1.3-4.8c0-0.1-0.1-0.2-0.2-0.2h-0.5
	c-0.1,0-0.2,0.1-0.2,0.2c0,0,0,0,0,0l0,0v5.7c0,0.1-0.1,0.2-0.2,0.2c0,0,0,0,0,0h-1.3c-0.1,0-0.2-0.1-0.2-0.2V95
	c0-0.1,0.1-0.2,0.2-0.2h3.3c1.2,0,2.1,1,2.1,2.2v2.5c0,0.7-0.4,1.4-1,1.8c-0.1,0.1-0.1,0.2-0.1,0.3c0.6,2.1,1,3.9,1.6,5.9
	C146.3,107.7,146.2,107.7,146.1,107.7z M144,97.6c0-0.5-0.4-0.9-0.9-0.9h-1c-0.1,0-0.2,0.1-0.2,0.2c0,0,0,0,0,0l0,0v2.7
	c0,0.1,0.1,0.2,0.2,0.2h1c0.5,0,0.9-0.4,0.9-0.9V97.6z"/>
<path class="st5" d="M150.2,96.8v2c0,0.2,0.1,0.3,0.3,0.3l0,0h1.7c0.2,0,0.3,0.1,0.3,0.3v0l0,0v1.1c0,0.2-0.1,0.3-0.3,0.3l0,0h-1.7
	c-0.2,0-0.3,0.1-0.3,0.3c0,0,0,0,0,0l0,0v4.6c0,0.2,0.1,0.3,0.3,0.3c0,0,0,0,0,0h2.3c0.2,0,0.3,0.1,0.3,0.3v1.1
	c0,0.2-0.1,0.3-0.3,0.3c0,0,0,0,0,0h-4.1c-0.2,0-0.3-0.1-0.3-0.3c0,0,0,0,0,0l0,0V95c0-0.2,0.1-0.3,0.3-0.3l0,0h4.1
	c0.2,0,0.3,0.1,0.3,0.3v0l0,0v1.2c0,0.2-0.1,0.3-0.3,0.3l0,0h-2.3C150.4,96.5,150.2,96.6,150.2,96.8L150.2,96.8L150.2,96.8z"/>
<path class="st5" d="M156.2,95c0-0.1,0.1-0.2,0.2-0.2h2.1c0.1,0,0.2,0.1,0.2,0.2s1.9,12.2,1.9,12.5s-0.1,0.2-0.2,0.2H159
	c-0.1,0-0.2-0.1-0.2-0.2s-0.1-0.5-0.2-1.6c0-0.1-0.1-0.2-0.2-0.2h-1.9c-0.1,0-0.1,0.1-0.1,0.2l-0.2,1.6c0,0.1-0.1,0.2-0.2,0.2h-1.4
	c-0.1,0-0.3,0-0.2-0.2L156.2,95z M156.8,104h1.3c0.1,0,0.1-0.1,0.1-0.2l0,0l-0.8-7l-0.8,7C156.6,103.9,156.7,104,156.8,104
	C156.8,104,156.8,104,156.8,104L156.8,104z"/>
<path class="st5" d="M66,21.4l0.1,12.9c-2.5,0.3-4.9,0.7-7.4,1.1v-4.1c-2.7,0.5-5.3,1-7.9,1.7l0.1,9.6c4.2-0.7,8.3-1.3,12.5-1.8v8.4
	c-4.2,0.4-8.3,0.8-12.5,1.4v11l3.6-0.2l0.1,8.2l-15.4,0.1v-7.4l3.6-0.2c0-9-0.1-18-0.1-27c-1.2,0.3-2.3,0.7-3.5,1v-7.4
	C47.8,25.4,56.8,23,66,21.4z"/>
<path class="st1" d="M38.5,70.3v-8.7l3.6-0.2L42,35.9l-2.7,0.8l-0.8,0.2v-8.8l0.4-0.1c8.8-3.2,17.8-5.6,27-7.2l0.8-0.1l0.1,14.3
	L66.2,35c-2.5,0.3-4.9,0.7-7.4,1.1l-0.8,0.1v-4.1c-2.2,0.4-4.4,0.9-6.6,1.4l0.1,8.3c3.9-0.7,7.8-1.2,11.8-1.7L64,40v9.8l-0.6,0.1
	c-4,0.4-8,0.8-11.9,1.3v9.8l3.6-0.2l0.1,9.6L38.5,70.3z M39.8,62.9V69h14.1l-0.1-6.9l-3.6,0.2V50l0.6-0.1c3.9-0.5,7.9-0.9,11.9-1.3
	v-7.1c-4,0.5-7.9,1-11.7,1.7l-0.8,0.1l-0.1-10.9l0.5-0.1c2.6-0.6,5.3-1.2,8-1.7l0.8-0.1v4.1c2-0.3,4-0.6,6.1-0.9l-0.1-11.6
	c-8.7,1.6-17.3,3.9-25.6,6.9v6.1c0.9-0.3,1.8-0.5,2.7-0.8l0.8-0.2l0.1,28.5L39.8,62.9z"/>
<path class="st5" d="M81.1,19.5c2.1,13.5,4.2,27.2,6.2,41h3.6v9.1H77.8v-9h2l-0.4-4.4c-2,0.1-4.1,0.1-6.1,0.2l-0.4,4.4l2.1-0.1v8.9
	H61.8l-0.1-8.5l3.6-0.1c2-13.2,3.9-26.6,5.9-40.3C74.5,20.1,77.8,19.8,81.1,19.5z M74.5,47.4c1.2-0.1,2.5-0.1,3.7-0.2
	c-0.7-4.7-1.3-9.4-1.9-14L74.5,47.4z"/>
<path class="st1" d="M61.2,70.2l-0.1-9.8l3.6-0.1C66.5,48,68.4,35,70.5,20.5l0.1-0.5l0.5-0.1c3.3-0.5,6.6-0.8,10-1.1h0.6l0.1,0.6
	c2,12.8,4,26.4,6.1,40.4h3.7v10.4H77.1V59.9h2l-0.3-3.1c-1.6,0-3.3,0.1-4.9,0.2l-0.4,3l2-0.1l0.1,10.3L61.2,70.2z M62.4,61.7
	l0.1,7.2h11.9v-7.6l-2.2,0.1l0.6-5.7h0.6c2-0.1,4.1-0.1,6.1-0.2h0.6l0.5,5.8h-2.1v7.7h11.8v-7.8h-3.5l-0.1-0.6
	c-2.1-13.9-4.1-27.5-6.1-40.3c-2.9,0.2-5.9,0.6-8.8,1c-2.1,14.5-4,27.6-5.8,39.9l-0.1,0.5L62.4,61.7z M73.8,48l2.5-20l0.7,5
	c0.6,4.7,1.3,9.4,1.9,14l0.1,0.7h-0.7c-1.2,0.1-2.4,0.1-3.7,0.2L73.8,48z M76.3,38.1l-1.1,8.5l2.2-0.1C77.1,43.8,76.7,41,76.3,38.1
	L76.3,38.1z"/>
<path class="st5" d="M120.4,27.8l-0.1,13c-1.2,1.2-2.3,2.4-3.4,3.7l3.4,4.3l-0.1,14.6c-1.8,2-3.5,4-5.3,6.2h-23v-9h3.6V28.5h-3.7
	v-9.4c7.7-0.1,15.5,0.4,23.2,1.5L120.4,27.8z M103.8,42.9c2.2-1.3,4.4-2.5,6.6-3.7l1.7-2v-5.6l-1.8-2.3c-2.1-0.2-4.3-0.4-6.4-0.5
	L103.8,42.9z M103.8,60.7c2.1,0,4.3,0,6.4,0.1l1.8-2.1v-7.4l-1.7-2.2c-2.2,1.2-4.3,2.5-6.5,3.8L103.8,60.7z"/>
<path class="st1" d="M115.2,70.2h-24V60h3.6V29.1h-3.6V18.4h0.6c7.8-0.1,15.6,0.4,23.3,1.5h0.3l5.7,7.6L121,41.1l-0.2,0.2
	c-1,1.1-2.1,2.2-3.1,3.3l3,3.8l0.2,0.2l-0.1,15.1l-0.2,0.2c-1.8,2-3.6,4.1-5.3,6.1L115.2,70.2z M92.5,68.9h22c1.6-1.9,3.3-3.9,5-5.8
	l0.1-14.1c-1.1-1.4-2.2-2.7-3.2-4.1l-0.3-0.4l0.4-0.4c1.1-1.2,2.2-2.4,3.3-3.5l0.1-12.5l-5.1-6.9c-7.3-1-14.8-1.5-22.2-1.5v8.1h3.6
	v33.4h-3.6L92.5,68.9z M110.4,61.5h-0.3c-2.1-0.1-4.3-0.1-6.4-0.1h-0.6v-8.7l0.3-0.2c2.2-1.3,4.3-2.6,6.5-3.8l0.5-0.3l2.2,2.8V59
	L110.4,61.5z M104.4,60.1c1.8,0,3.6,0.1,5.4,0.1l1.5-1.6v-6.9l-1.2-1.6c-1.9,1.1-3.8,2.2-5.7,3.4L104.4,60.1z M103.1,44l0.1-16h0.7
	c2.2,0.1,4.3,0.3,6.5,0.5h0.3l2.1,2.8v6.1l-1.9,2.2l-0.1,0.1c-2.2,1.2-4.4,2.5-6.5,3.7L103.1,44z M104.5,29.4v12.3
	c1.8-1.1,3.7-2.1,5.5-3.1l1.5-1.7v-5.1l-1.4-1.9C108.2,29.7,106.4,29.6,104.5,29.4L104.5,29.4z"/>
<path class="st5" d="M141.8,26.8c1.8,2.5,3.5,4.9,5.3,7.3v30.1c-1.8,1.8-3.6,3.6-5.5,5.4l-13.8-0.1c-1.8-2.1-3.6-4.2-5.4-6.4l0.3-35
	c1.8-1.8,3.7-3.6,5.5-5.2C132.7,24.1,137.3,25.3,141.8,26.8z M137.3,61.6l1.5-1.6l0.2-24.6l-1.4-1.9c-1.7-0.4-3.4-0.8-5.1-1.2
	c-0.5,0.5-1,0.9-1.6,1.4l-0.2,25.8l1.4,1.7L137.3,61.6z"/>
<path class="st1" d="M141.9,70.3l-14.4-0.1l-0.2-0.3c-1.8-2.1-3.6-4.2-5.4-6.4l-0.2-0.2v-0.2l0.2-35.3l0.2-0.2
	c1.8-1.8,3.7-3.6,5.5-5.3l0.3-0.2l0.3,0.1c4.6,1.1,9.2,2.4,13.7,3.8l0.2,0.1l0.1,0.2c1.8,2.5,3.6,4.9,5.3,7.3l0.1,0.2v30.6l-0.2,0.2
	c-1.8,1.7-3.6,3.6-5.4,5.4L141.9,70.3z M128.1,68.9l13.2,0.1c1.7-1.7,3.4-3.4,5.1-5.1V34.3c-1.7-2.3-3.4-4.6-5.1-6.9
	c-4.3-1.4-8.7-2.6-13-3.7c-1.7,1.5-3.4,3.1-5,4.8L123.1,63C124.7,65,126.4,67,128.1,68.9L128.1,68.9z M137.6,62.3l-5.8-0.3l-1.8-2.2
	l0.2-26.3l0.2-0.2l1.6-1.4l0.2-0.2l0.3,0.1c1.7,0.3,3.5,0.7,5.2,1.2L138,33l1.7,2.3l-0.1,25L137.6,62.3z M132.4,60.7l4.6,0.2
	l1.1-1.2l0.1-24.1l-1.1-1.5c-1.5-0.4-3.1-0.7-4.6-1l-1.1,1l-0.2,25.3L132.4,60.7z"/>
</svg>
