<?xml version="1.0" encoding="utf-8"?>
<!-- Generator: Adobe Illustrator 20.1.0, SVG Export Plug-In . SVG Version: 6.00 Build 0)  -->
<svg version="1.1" id="Layer_1" xmlns="http://www.w3.org/2000/svg" xmlns:xlink="http://www.w3.org/1999/xlink" x="0px" y="0px"
	 viewBox="0 0 978.7 1059.5" style="enable-background:new 0 0 978.7 1059.5;" xml:space="preserve">
<style type="text/css">
	.st0{fill:#FFFFFF;}
	.st1{fill:none;}
	.st2{enable-background:new    ;}
</style>
<title>fabo_logo</title>
<g>
	<path class="st0" d="M748.1,523.2h5.3c2.5,0,4.6-2.1,4.6-4.6v-6.6c0-2.6-2.1-5-4.6-5h-5.3c-0.7,0-1.2,0.4-1.3,1.1c0,0,0,0,0,0v14.1
		C746.9,522.8,747.5,523.2,748.1,523.2z"/>
</g>
<g>
	<path class="st0" d="M520.5,524.2h3c2.4,0,4.1-2.6,4.1-5v-8.5c0-2.6-1.7-5-4.1-5h-3c-0.9,0-1.6,0.7-1.6,1.5c0,0,0,0,0,0.1v15.4
		C519,523.5,519.7,524.2,520.5,524.2z"/>
</g>
<g>
	<path class="st0" d="M523.9,532.7h-3.3c-0.9,0-1.6,0.7-1.6,1.5c0,0,0,0,0,0.1v21c0,0.9,0.7,1.6,1.5,1.6c0,0,0,0,0.1,0h3.3
		c2.4,0,4.1-2.6,4.1-5v-14.2C528,535.1,526.3,532.7,523.9,532.7z"/>
</g>
<g>
	<path class="st0" d="M603.5,506.9h-5.3c-0.6,0-1.2,0.5-1.2,1.1v14.1c0.1,0.6,0.6,1.1,1.3,1h5.3c2.5,0,4.6-2.1,4.6-4.6v-6.6
		C608.1,509.3,606,506.9,603.5,506.9z"/>
</g>
<g>
	<path class="st0" d="M707.8,546h7c0.4,0,0.8-0.4,0.8-0.8c0,0,0-0.1,0-0.1l-4.3-36.9l-4.4,36.8c-0.1,0.5,0.3,0.9,0.8,1
		C707.7,546,707.7,546,707.8,546z"/>
</g>
<g>
	<path class="st0" d="M826,546h7c0.4,0,0.8-0.4,0.8-0.8c0,0,0-0.1,0-0.1l-4.3-36.9l-4.4,36.8c-0.1,0.5,0.3,0.9,0.8,1
		C825.9,546,826,546,826,546z"/>
</g>
<g>
	<path class="st0" d="M346,506.9h-5.3c-0.7,0-1.2,0.4-1.3,1.1c0,0,0,0,0,0v14.1c0.1,0.6,0.6,1.1,1.3,1h5.3c2.5,0,4.6-2.1,4.6-4.6
		v-6.6C350.6,509.3,348.5,506.9,346,506.9z"/>
</g>
<g>
	<path class="st0" d="M189,523.2h5.3c2.5,0,4.6-2.1,4.6-4.6v-6.6c0-2.6-2.1-5-4.6-5H189c-0.7,0-1.2,0.4-1.3,1.1c0,0,0,0,0,0v14.1
		C187.8,522.8,188.4,523.2,189,523.2z"/>
</g>
<g>
	<path class="st0" d="M267.9,556.5h2.9c2.6,0.1,4.7-2,4.8-4.6V511c0-2.7-2.1-4.8-4.8-4.9h-3.2c-0.7,0-1.2,0.4-1.3,1.1c0,0,0,0,0,0.1
		v47.7C266.2,555.8,266.9,556.5,267.9,556.5C267.8,556.5,267.8,556.5,267.9,556.5z"/>
</g>
<g>
	<path class="st0" d="M723.2,456.6c-7.1-12-15-23.5-23.8-34.3h0.5l-9-10l-1.7-1.9c-26.8-29.1-59.6-52-96.1-67.3l-2.9-1.1l-10.4-4.3
		v0.3c-49.2-17.8-102.6-20.9-153.5-8.9c-12.4,2.9-24.5,6.6-36.3,11.2c-57.4,22.3-105.6,63.2-136.9,116.3H113.1v152.7h15.5
		l28.7,181.5l6.4-1c39.7-6.3,79.5-11.4,119.4-15.5c2.5,2.9,5.1,5.7,7.8,8.5c28.8,30.1,64.2,53.3,103.3,67.7h-0.2l10.4,3.5l3.1,1
		c48.2,15,99.6,16.3,148.5,3.8c8.9-2.3,17.7-5,26.3-8.2l33.6-14.8c29.8-15.9,56.5-37.1,78.6-62.7c44,4.2,88,9.7,131.9,16.7l6.4,1
		l28.7-181.5h8.8V456.6H723.2z M812.4,564.4l10.2-66.2c0.2-0.7,0.6-1.3,1.3-1.3h11.3c0.7,0,1,0.6,1.2,1.3c0.1,0.3,10,64.4,10.2,66.2
		c0.1,1-0.5,1.3-1.2,1.3h-7.6c-0.7,0-1-0.6-1.2-1.3s-0.5-2.8-1.3-8.6c0-0.5-0.5-0.8-0.9-0.8h-10.1c-0.5,0-0.7,0.3-0.8,0.8l-1.3,8.6
		c0,0.7-0.6,1.2-1.3,1.3h-7.5C813,565.7,812.3,565.4,812.4,564.4L812.4,564.4z M781.7,498.5c0-0.9,0.7-1.6,1.5-1.6c0,0,0,0,0.1,0
		H805c0.9,0,1.6,0.7,1.6,1.5c0,0,0,0,0,0.1v6.1c0,0.9-0.7,1.6-1.5,1.6c0,0,0,0-0.1,0h-12.3c-0.9,0-1.6,0.7-1.6,1.5c0,0,0,0,0,0.1
		v10.5c0,0.9,0.7,1.6,1.5,1.6c0,0,0,0,0.1,0h8.9c0.9,0,1.6,0.7,1.6,1.5c0,0,0,0,0,0.1v5.7c0,0.9-0.7,1.6-1.5,1.6c0,0,0,0-0.1,0h-8.9
		c-0.8-0.1-1.5,0.6-1.6,1.4c0,0.1,0,0.1,0,0.2v24.4c0,0.9,0.8,1.6,1.7,1.6c0,0,0,0,0,0H805c0.8,0,1.5,0.6,1.5,1.4c0,0,0,0.1,0,0.1v6
		c0,0.9-0.7,1.7-1.6,1.7c0,0,0,0,0,0h-21.6c-0.9,0-1.6-0.8-1.6-1.7c0,0,0,0,0,0L781.7,498.5z M737.4,498.2c0-0.7,0.6-1.3,1.3-1.3
		h17.5c6.3,0.2,11.2,5.3,11.2,11.6v13.4c0,3.8-2,7.3-5.2,9.3c-0.5,0.5-0.7,1.2-0.5,1.8c2.9,11.1,5.4,20.6,8.4,31.4
		c0.2,1-0.6,1.3-1.3,1.3h-7.6c-0.7,0-1.2-0.6-1.4-1.3c0,0-1-4.1-1.4-5.3c-1.3-4.7-3.3-12.6-6.8-25.2c-0.2-0.5-0.6-0.8-1.2-0.8h-2.6
		c-0.7,0-1.2,0.4-1.3,1.1c0,0,0,0,0,0.1v30.1c0,0.7-0.4,1.2-1.1,1.3c0,0,0,0-0.1,0h-7c-0.7,0-1.3-0.6-1.3-1.3L737.4,498.2z
		 M718.1,498.2c0.1,0.3,10,64.4,10.2,66.2c0.1,1-0.5,1.3-1.2,1.3h-7.6c-0.7,0-1-0.6-1.2-1.3s-0.5-2.8-1.3-8.6c0-0.5-0.5-0.8-0.9-0.8
		h-10.1c-0.5,0-0.7,0.3-0.8,0.8l-1.3,8.6c0,0.7-0.6,1.2-1.3,1.3h-7.5c-0.7,0-1.4-0.2-1.3-1.3l10.2-66.2c0.2-0.7,0.6-1.3,1.3-1.3
		h11.3C717.6,496.9,718,497.5,718.1,498.2L718.1,498.2z M675.9,423.8l1.6-0.5l1.3-0.4l1.5-0.3l1.6-0.2h1.9
		c9.4,10.7,17.9,22.2,25.5,34.2h-56.7c0-0.1,0.1-0.3,0.1-0.4c0.2-0.7,0.4-1.6,0.6-2.4s0.4-1.4,0.6-2s0.4-1.4,0.7-2.1l0.7-2l0.7-1.9
		l0.8-1.9l0.7-1.6c0.3-0.6,0.6-1.2,0.9-1.8l0.8-1.4c0.3-0.6,0.7-1.2,1-1.8l0.7-1.1c0.4-0.6,0.8-1.2,1.2-1.8l0.3-0.5
		c1.5-2,3.3-3.9,5.2-5.5l0.7-0.6c0.5-0.4,1-0.7,1.5-1.1l0.9-0.6l1.5-0.9l1-0.5l1.6-0.7L675.9,423.8z M645,505.2
		c-4.1,0-4.8,2.9-4.8,5.5v41.6c0,2.5,0.7,5.4,4.8,5.4s4.9-2.9,4.9-5.5l-0.1-18c0-0.7-0.4-1.2-1.1-1.3c0,0,0,0-0.1,0h-3.2
		c-0.7,0-1.2-0.6-1.2-1.2c0,0,0,0,0-0.1v-6.3c0-0.6,0.4-1.1,1-1.2c0,0,0.1,0,0.1,0h12.5c0.5,0,1,0.4,1,0.9V554c0,9.6-8.1,13-14,13
		c-6.8,0-14.3-3.9-14.3-15.2v-40.4c0-11.6,7.6-15.2,14.3-15.2c5.8,0,14,3,14,11.4v4.2c0,0.6-0.5,1.1-1.2,1.2h-6.5
		c-0.7,0.1-1.3-0.4-1.4-1.1c0,0,0-0.1,0-0.1v-1C649.9,508,649.1,505.2,645,505.2z M591.5,425.9c0.6-3.1,1.1-6.1,1.6-9.1l0.3-2
		c0.4-2.6,0.8-5.2,1.1-7.7l0.2-1.5c0.4-2.8,0.7-5.5,1-8.2l0.2-2c0.2-2.6,0.5-5.1,0.7-7.5v-0.5c0.2-2.5,0.3-5,0.4-7.4v-9.6
		c0-2,0-3.9-0.2-5.9v-1.5c-0.1-2.1-0.3-4.1-0.5-6c-0.3-2.9,0-0.3,0-0.5c29.2,13.5,55.7,32.3,78.2,55.3l-0.1-0.1h-0.2
		c-1.1,0.3-2.1,0.6-3.1,1h-0.2c-0.9,0.4-1.9,0.8-2.8,1.2l-0.5,0.2c-1.9,0.9-3.7,2-5.3,3.3l-0.4,0.3c-1.7,1.2-3.2,2.6-4.7,4.1
		l-0.3,0.3c-1.4,1.5-2.8,3.1-4,4.8l-0.2,0.4c-1.3,1.7-2.4,3.5-3.5,5.3l-0.2,0.4c-0.5,0.9-1,1.7-1.4,2.6v0.2
		c-0.5,0.9-0.9,1.9-1.3,2.9l-0.2,0.5c-0.4,0.9-0.7,1.7-1.1,2.6v0.4c-0.4,1-0.7,2-1.1,3v0.5l-0.8,2.6v0.6c-0.3,1-0.6,1.9-0.8,2.9
		l-0.3-0.2c-3.5-2.1-6.9-4.2-10.4-6.1l-2.3-1.2c-3.6-2-7.2-3.9-10.9-5.7l-1.9-0.9c-3.4-1.7-6.9-3.3-10.4-4.9l-1.8-0.8
		c-3.8-1.7-7.6-3.3-11.5-4.8l-1.2-0.5L591.5,425.9z M585.9,449.3c0.4-1.7,0.8-3.5,1.1-5.2s0.6-2.9,0.9-4.3l0.2-1.2l0.6,0.2
		c3.9,1.6,7.7,3.2,11.5,4.9l2.3,1c3.8,1.7,7.5,3.5,11.2,5.4l1.5,0.8c3.5,1.8,7,3.7,10.4,5.6l0.2,0.1h-41.6c0.2-0.9,0.4-1.9,0.7-2.9
		L585.9,449.3z M612,533c2.9,11.1,5.4,20.6,8.4,31.4c0.2,1-0.6,1.3-1.3,1.3h-7.6c-0.7,0-1.2-0.6-1.4-1.3c0,0-1-4.1-1.4-5.3
		c-1.3-4.7-3.3-12.6-6.8-25.2c-0.2-0.5-0.6-0.8-1.2-0.8h-2.6c-0.7,0-1.2,0.4-1.3,1.1c0,0,0,0,0,0.1v30.1c0,0.7-0.4,1.2-1.1,1.3
		c0,0,0,0-0.1,0h-7c-0.7,0-1.3-0.6-1.3-1.3v-66.2c0-0.7,0.6-1.3,1.3-1.3h17.5c6.3,0.2,11.2,5.3,11.2,11.6v13.4c0,3.8-2,7.3-5.2,9.3
		C611.9,531.6,611.8,532.4,612,533z M514.3,335.2L514.3,335.2c2.9,0.3,5.9,0.7,8.9,1.1l3,0.5l6,0.9l3.4,0.7l5.4,1l3.8,0.8l5.1,1.2
		l3.8,1l4.9,1.3l3.9,1.1l4.7,1.5l4,1.3l4.6,1.6l4,1.5l3,1.1c0.3,1.9,0.6,3.8,0.9,5.9v1.1c0.2,2,0.4,4.2,0.5,6.4v8.9
		c0,2.5-0.1,5-0.2,7.6v0.6c0,2.7-0.3,5.4-0.6,8.3v1.4c-0.3,2.8-0.5,5.6-0.9,8.5l-0.2,1.6c-0.4,3-0.8,6-1.2,9.2l-0.2,1.2
		c-0.5,3.3-1,6.6-1.7,10.1v0.2l-0.8-0.3c-4.2-1.5-8.5-2.9-12.7-4.2l-2.7-0.8c-4.4-1.3-8.8-2.6-13.3-3.7l-1.1-0.2
		c-4.3-1.1-8.6-2.1-12.9-3l-2.4-0.5c-4.4-0.9-8.9-1.8-13.4-2.5l-1-0.2h-0.2c2.7-23.4-7.4-46.4-26.4-60.2
		c-7.7-5.5-16.2-9.7-25.3-12.4C482.9,333.3,498.6,333.6,514.3,335.2L514.3,335.2z M561.8,558.2c4.1,0,4.9-3.9,4.9-6.7v-53.5
		c0-0.7,0.6-1.2,1.2-1.2c0,0,0,0,0,0h6.9c0.7,0,1.2,0.4,1.3,1.1c0,0,0,0,0,0.1v53.9c0,11.6-7.5,15.4-14.3,15.4s-14.3-3.8-14.3-15.4
		v-53.9c0-0.7,0.6-1.2,1.2-1.2c0,0,0,0,0,0h6.9c0.7,0,1.2,0.4,1.3,1.1c0,0,0,0,0,0.1v53.5C556.9,554.3,557.7,558.2,561.8,558.2
		L561.8,558.2z M576,440.8l-1.1,5.1l-1,4.4l-1.3,5.1l-0.3,1.2h-75.2c7.9-9.4,13.7-18.5,16.8-27.3c0.6-1.5,1-3.1,1.5-4.6l0.4-1.5
		c0.3-1.1,0.6-2.3,0.9-3.5l0.2-0.9l1.1,0.2c4.5,0.8,9,1.6,13.4,2.5l2.3,0.5c4.6,1,9.2,2,13.9,3.2h0.3c4.5,1.1,8.9,2.4,13.3,3.8
		l2.1,0.6c4.3,1.3,8.5,2.7,12.7,4.2l1.2,0.4l-0.5,2.3L576,440.8z M537.1,536.8V554c0,5.7-5,11.7-10.8,11.7H511
		c-0.8,0.1-1.5-0.6-1.6-1.4c0-0.1,0-0.1,0-0.2v-65.6c0-0.9,0.7-1.6,1.5-1.6c0,0,0,0,0.1,0h15c5.7,0,10.8,5,10.8,11.7v9.7
		c0,4.1-1.4,7.5-4.7,9.2C535.4,529.2,537.2,532.5,537.1,536.8L537.1,536.8z M455,498.6c0.5-1.1,0.8-1.7,1.6-1.7h7.1
		c0,0,1.4,0,0.8,1.7L451.1,528l14.8,35.9c0.6,1.4-0.2,1.8-1.1,1.8h-6.4c-0.9,0-1.7-0.7-2-1.6c-1.1-3.3-8.9-19.4-13.1-31v31.2
		c0,0.9-0.7,1.5-1.6,1.5c0,0,0,0,0,0h-5.6c-0.9,0-1.6-0.6-1.7-1.5v-65.6c0-0.9,0.8-1.7,1.7-1.7h5.6c0.9,0,1.6,0.8,1.6,1.7V525
		C447.4,514.1,453.7,501.7,455,498.6z M284,456.6c1.4-0.7,2.9-1.5,4.2-2.2c2.3-1.2,3.8-2,5.6-3s4.8-2.3,7.2-3.5
		c1.8-0.9,3.7-1.8,5.5-2.6c2.5-1.1,5-2.2,7.6-3.3c1.8-0.8,3.5-1.6,5.4-2.3c2.7-1.1,5.4-2,8.1-3.1c1.7-0.6,3.5-1.3,5.1-1.9
		c3-1,5.9-2,9-3l4.4-1.4c4.5-1.3,9-2.6,13.5-3.8c28.1-7.2,56.8-11.3,85.8-12.2c20.1-0.6,40.2,0.3,60.1,2.9v0.5
		c-0.2,0.8-0.5,1.7-0.7,2.5l-0.4,1.3c-0.4,1.2-0.8,2.5-1.2,3.8c-3.5,9.7-11,20.1-21.3,31.2L284,456.6z M410.1,505.4
		c-4.2,0-5,2.8-5,5.3v40.8c0,2.6,0.8,5.4,5,5.4s5.2-2.8,5.2-5.4v-4.2c0-0.7,0.6-1.3,1.3-1.3h7c0.7,0,1.2,0.6,1.2,1.2c0,0,0,0,0,0.1
		v6.3c0,9.4-8,12.7-14.5,12.7c-7.5,0-14.8-3.8-14.8-15.1V511c0-11.2,7.3-15,14.8-15c6.5,0,14.5,3,14.5,11.5v6.4c0,0.6-0.4,1.1-1,1.1
		c0,0-0.1,0-0.1,0h-7c-0.7,0-1.2-0.5-1.3-1.1c0,0,0-0.1,0-0.1v-3.1C415.2,508.1,414.4,505.4,410.1,505.4L410.1,505.4z M383.9,498.5
		v65.5c0,0.9-0.7,1.6-1.5,1.6c0,0,0,0-0.1,0H376c-0.9,0-1.6-0.7-1.6-1.5c0,0,0,0,0-0.1v-65.6c0-0.9,0.7-1.6,1.5-1.6c0,0,0,0,0.1,0
		h6.3C383.1,496.9,383.8,497.6,383.9,498.5C383.8,498.5,383.8,498.5,383.9,498.5L383.9,498.5z M354.5,533
		c2.9,11.1,5.4,20.6,8.4,31.4c0.2,1-0.6,1.3-1.3,1.3H354c-0.7,0-1.1-0.6-1.4-1.3c0,0-1-4.1-1.4-5.3c-1.3-4.7-3.3-12.6-6.8-25.2
		c-0.2-0.5-0.6-0.8-1.1-0.8h-2.6c-0.7,0-1.2,0.4-1.3,1.1c0,0,0,0,0,0.1v30.1c0,0.7-0.4,1.2-1.1,1.3c0,0,0,0-0.1,0h-7
		c-0.7,0-1.3-0.6-1.3-1.3v-66.2c0-0.7,0.6-1.3,1.3-1.3h17.5c6.3,0.2,11.2,5.3,11.2,11.6v13.4c0,3.8-2,7.3-5.2,9.3
		C354.4,531.6,354.3,532.4,354.5,533z M307,519.9h8.9c0.9,0,1.6,0.7,1.6,1.5c0,0,0,0,0,0.1v5.7c0,0.9-0.7,1.6-1.5,1.6c0,0,0,0-0.1,0
		H307c-0.8-0.1-1.5,0.6-1.6,1.4c0,0.1,0,0.1,0,0.2v24.4c0,0.9,0.8,1.6,1.7,1.6c0,0,0,0,0,0h12.3c0.8,0,1.5,0.6,1.5,1.4
		c0,0,0,0.1,0,0.1v6c0,0.9-0.7,1.7-1.6,1.7c0,0,0,0,0,0h-21.7c-0.9,0-1.6-0.8-1.6-1.7c0,0,0,0,0,0v-65.5c0-0.9,0.7-1.6,1.5-1.6
		c0,0,0,0,0.1,0h21.8c0.9,0,1.6,0.7,1.6,1.5c0,0,0,0,0,0.1v6.1c0,0.9-0.7,1.6-1.5,1.6c0,0,0,0-0.1,0H307c-0.9,0-1.6,0.7-1.6,1.5
		c0,0,0,0,0,0.1v10.5C305.3,519.2,306,519.9,307,519.9C306.9,519.9,306.9,519.9,307,519.9z M471.3,548.4c0-0.6,0.4-1,1-1h7
		c0.6,0,1.1,0.4,1.1,1v2.1c0,4.8,2.6,6.9,5.2,6.9c2.9,0,5.3-2.2,5.3-8.6c0-13.8-19.6-20.3-19.6-37.6c0-8.6,6.3-14.8,14-14.8
		c7.6,0,13.8,6.1,13.9,13.8c0.1,0.5-0.3,1.1-0.8,1.1c0,0-0.1,0-0.1,0h-7c-0.6-0.1-1-0.6-1-1.1c0.1-2.4-1.8-4.5-4.2-4.6
		c-0.1,0-0.3,0-0.4,0c-2.6,0-4.8,1.7-4.8,5.6c0,12.6,19.5,20.7,19.5,37.9c0,6.8-4.2,17.4-14.9,17.4c-8,0-14-5.2-14.1-15.7
		L471.3,548.4z M423.5,342.1L423.5,342.1l4.1-1h0.6c24.3,0.4,43.7,5.7,57.4,15.7c15.5,11.2,23.8,30,21.6,49
		c-20.7-2.7-41.5-3.7-62.3-3.1c-29.8,1-59.4,5.2-88.2,12.7c-4.3,1.1-8.5,2.3-12.8,3.5l-3.9,1.2c-3,0.9-6,1.9-8.9,2.9l-4.4,1.5
		c-3,1.1-6,2.2-9,3.5l-3.5,1.4c-4.1,1.7-8.2,3.5-12.3,5.3l-1.6,0.7c-3.5,1.6-7,3.3-10.4,5.1l-3.9,2c-2.8,1.4-5.5,2.9-8.2,4.4
		l-4.1,2.3l-2.6,1.5C306.7,397,361,358.3,423.5,342.1z M256.8,498.6c0-0.9,0.7-1.6,1.5-1.6c0,0,0,0,0.1,0h14.9
		c6.2,0.2,11.2,5.2,11.2,11.5v46.2c0,6.1-5.5,11-11.7,11h-14.4c-0.8,0.1-1.5-0.5-1.6-1.4c0,0,0-0.1,0-0.1L256.8,498.6z M222.6,498.5
		c0-0.9,0.7-1.6,1.5-1.6c0,0,0,0,0.1,0H246c0.9,0,1.6,0.7,1.6,1.5c0,0,0,0,0,0.1v6.1c0,0.9-0.7,1.6-1.5,1.6c0,0,0,0-0.1,0h-12.4
		c-0.9,0-1.6,0.7-1.6,1.5c0,0,0,0,0,0.1v10.5c0,0.9,0.7,1.6,1.5,1.6c0,0,0,0,0.1,0h8.9c0.9,0,1.6,0.7,1.6,1.5c0,0,0,0,0,0.1v5.7
		c0,0.9-0.7,1.6-1.5,1.6c0,0,0,0-0.1,0h-8.9c-0.8-0.1-1.5,0.6-1.6,1.4c0,0.1,0,0.1,0,0.2v24.4c0,0.9,0.8,1.6,1.7,1.6c0,0,0,0,0,0
		H246c0.8,0,1.5,0.6,1.5,1.4c0,0,0,0.1,0,0.1v6c0,0.9-0.7,1.7-1.6,1.7c0,0,0,0,0,0h-21.7c-0.9,0-1.6-0.8-1.6-1.7c0,0,0,0,0,0
		L222.6,498.5z M178.4,498.2c0-0.7,0.6-1.3,1.3-1.3h17.5c6.3,0.2,11.2,5.3,11.2,11.6v13.4c0,3.8-2,7.3-5.2,9.3
		c-0.5,0.5-0.7,1.2-0.5,1.8c2.9,11.1,5.4,20.6,8.4,31.4c0.2,1-0.6,1.3-1.3,1.3h-7.6c-0.7,0-1.1-0.6-1.4-1.3c0,0-1-4.1-1.4-5.3
		c-1.3-4.7-3.3-12.6-6.8-25.2c-0.2-0.5-0.6-0.8-1.1-0.8H189c-0.7,0-1.2,0.4-1.3,1.1c0,0,0,0,0,0.1v30.1c0,0.7-0.4,1.2-1.1,1.3
		c0,0,0,0-0.1,0h-7c-0.7,0-1.3-0.6-1.3-1.3L178.4,498.2z M143.6,498.5c0-0.9,0.7-1.6,1.5-1.6c0,0,0,0,0.1,0H167
		c0.9,0,1.6,0.7,1.6,1.5c0,0,0,0,0,0.1v6.1c0,0.9-0.7,1.6-1.5,1.6c0,0,0,0-0.1,0h-12.3c-0.9,0-1.6,0.7-1.6,1.5c0,0,0,0,0,0.1v9.5
		c0,0.9,0.7,1.6,1.5,1.6c0,0,0,0,0.1,0h8.9c0.9,0,1.6,0.7,1.6,1.5c0,0,0,0,0,0.1v5.6c0,0.9-0.7,1.6-1.5,1.6c0,0,0,0-0.1,0h-8.9
		c-0.8-0.1-1.5,0.6-1.6,1.4c0,0.1,0,0.1,0,0.2l0.1,34.6c0,0.9-0.8,1.7-1.7,1.7h-6.3c-0.9,0-1.6-0.8-1.6-1.7c0,0,0,0,0,0L143.6,498.5
		z M415.3,831.8l-1.6,1.8l-1.7,1.8l-1.6,1.6l-1.7,1.7l-1.6,1.5l-1.8,1.6l-0.4,0.3l-4-1.4l-5-1.8c-1.9-0.7-3.8-1.5-5.6-2.2l-4.7-1.9
		c-1.9-0.8-3.8-1.7-5.6-2.5l-4.5-2.1c-1.9-0.9-3.7-1.9-5.6-2.8l-4.4-2.3c-1.9-1-3.7-2-5.6-3.1l-4.2-2.4c-1.9-1.1-3.8-2.3-5.6-3.5
		l-3.9-2.4c-2-1.3-4-2.7-6-4.1l-3.2-2.2c-3-2.2-6-4.4-9-6.7c-3.4-2.7-6.8-5.4-10-8.1l-0.1,0.1c-1.2-1.1-2.4-2.2-3.5-3.3
		c-1.9-1.7-3.9-3.5-5.8-5.2c-1.4-1.3-2.6-2.6-4-3.9s-3.5-3.3-5-5c-0.8-0.9-1.5-1.7-2.2-2.4c54.1-5.1,108.4-8.1,162.7-9l-1.1,2
		l-1.7,3.2l-1.9,3.5l-1.7,3.1l-1.9,3.5l-1.7,3l-1.9,3.2l-1.7,2.9l-1.9,3l-1.6,2.9l-1.9,2.9l-1.7,2.7l-1.8,2.8L436,805l-1.8,2.6
		l-1.7,2.5l-1.8,2.5L429,815l-1.7,2.4l-1.7,2.3l-1.7,2.2l-1.7,2.1l-1.7,2l-1.7,2l-1.7,1.9L415.3,831.8z M641,786.1
		c-0.6,1-1.3,2.3-2.1,3.5s-1.3,2-1.9,3s-1.5,2.3-2.3,3.5s-1.4,1.9-2.1,2.9l-2.6,3.5c-0.9,1.2-1.5,1.9-2.3,2.8s-1.8,2.3-2.8,3.5
		s-1.6,1.9-2.5,2.8s-2,2.3-3,3.5l-2.6,2.7c-1.1,1.1-2.1,2.3-3.3,3.5l-2.8,2.7l-3.2,3.1l-3.8,1.9l-2.6,1.3l-4.2,2l-2.7,1.2l-4.2,1.8
		l-2.7,1.2l-4.3,1.7l-2.7,1.1l-4.4,1.6l-2.7,1l-4.6,1.5l-2.6,0.9l-4.8,1.5l-2.5,0.7l-7.3,2c-2,0.3-4.4,0.7-7.3,1.3l-0.1,0.1
		l-2.9,0.6l-5.9,1.2l-3.5,0.6l-5.3,0.9l-3.7,0.5l-5.1,0.7l-3.8,0.4l-5,0.5l-3.9,0.3l-5,0.3h-21.6l-5-0.2l-3.8-0.3l-5.1-0.4l-3.7-0.3
		l-5.3-0.6l-3.5-0.5l-5.7-0.9l-3.1-0.5c-2.4-0.4-4.8-0.9-7.1-1.4l-1.6-0.3c-2.9-0.6-5.8-1.3-8.6-2l-2.6-0.7l-5.5-1.4l1.6-1.6
		l1.2-1.2l2.4-2.5l1.1-1.2l2.8-3.2l0.7-0.8c2.3-2.7,4.6-5.6,6.9-8.7l1-1.3l2.5-3.5l1.2-1.7l2.3-3.2l1.4-2l2.2-3.2l1.4-2.2l2.1-3.3
		l1.5-2.3l2.1-3.5l1.5-2.4l2.1-3.5l1.5-2.5l2.1-3.7l1.5-2.6l2.2-3.8l1.5-2.6l2.3-4.1l1.4-2.6l2.4-4.5l1.3-2.4l1.2-2.3
		c58.9-0.6,117.8,1.2,176.7,5.6l-0.3,0.7c-0.5,1.1-1,2.1-1.5,3.1s-1.1,2.3-1.7,3.5s-1.1,2-1.6,3.1s-1.2,2.3-1.9,3.5
		S641.6,785.1,641,786.1z M678.2,773.1l-1.6,1.8c-1.8,1.9-3.6,3.7-5.4,5.5l-1.3,1.2l-4.3,4.2l-2.1,1.9l-3.8,3.5l-2.3,1.9l-3.9,3.2
		l-2.3,1.8l-4.2,3.5l-2,1.5l-0.6,0.5c0.6-0.9,1.2-1.8,1.8-2.7l1.8-2.6c1-1.6,2-3.2,3-4.8l1.3-2.2l4-6.9l0.4-0.8
		c1.1-2.1,2.1-4.1,3.1-6.2c0.4-0.8,0.7-1.6,1.1-2.5c0.7-1.5,1.4-3.1,2-4.6c5.5,0.4,11,0.9,16.5,1.4L678.2,773.1z M821.8,775.9
		c-6-0.9-12-1.8-18-2.7l-5.9-0.8c-4.1-0.6-8.3-1.2-12.4-1.7l-6.6-0.9c-5.3-0.7-10.7-1.4-16.1-2.1c-3.1-0.4-6.2-0.8-9.3-1.2l-7.6-0.9
		c-3.6-0.4-7.2-0.8-10.8-1.3l-5-0.5c-8.6-1-17.2-1.9-25.8-2.7c-4.8-0.5-9.5-0.9-14.3-1.4c-7.4-0.7-14.8-1.3-22.3-1.9
		c-4.3-0.3-8.6-0.7-12.9-1c-26.6-2-53.2-3.5-79.8-4.5h-1.3c-6.2-0.2-12.4-0.4-18.5-0.6l-4.1-0.1c-5.3-0.1-10.6-0.3-15.9-0.4
		c-2.8,0-5.5-0.1-8.3-0.1c-3.9-0.1-7.8-0.1-11.8-0.2c-6.7-0.1-13.4-0.1-20.2-0.1c-5.1,0-10.2,0-15.3,0.1c-4.3,0-8.6,0-12.9,0.1
		c-7.3,0.1-14.6,0.2-21.9,0.4h-1.4c-6.8,0.2-13.7,0.4-20.5,0.6L421,752c-6.8,0.2-13.7,0.5-20.5,0.8l-1.6,0.1
		c-10.9,0.5-21.7,1.1-32.5,1.7l-5.2,0.3c-5.3,0.3-10.6,0.7-15.9,1.1l-6.5,0.5c-4.8,0.4-9.6,0.7-14.3,1.1l-7.3,0.6
		c-4.4,0.4-8.7,0.7-13.1,1.1l-8.3,0.8l-8.9,0.8c-4.5,0.4-9.1,0.9-13.6,1.4l-9.5,1l-7.9,0.9l-8.9,1c-4.9,0.6-9.8,1.2-14.6,1.8
		l-7.4,0.9c-4.1,0.5-8.2,1.1-12.3,1.6l-4.8,0.6c-5.7,0.8-11.3,1.6-17,2.4l-4.8,0.7c-6,0.9-11.9,1.8-17.9,2.7l-24.7-156.8
		c6.5-1,13.1-2,19.6-3c3.5-0.5,7.1-1,10.6-1.5l8.1-1.2c4.7-0.7,9.4-1.3,14.1-1.9l3.7-0.5c9.3-1.2,18.7-2.4,28.1-3.5l0,0
		c14.7-1.7,29.3-3.3,44-4.8l0,0c7.3-0.7,14.7-1.4,22-2l0,0c13.4-1.2,26.8-2.2,40.2-3.2l0,0c12.2-0.9,24.4-1.6,36.7-2.3l1.3-0.1
		c7.5-0.4,15.1-0.8,22.6-1.1l2.3-0.1c7.5-0.3,14.9-0.6,22.4-0.8l1.6,0c20.3-0.7,40.5-1.1,60.8-1.2h1.3c7.6,0,15.2,0,22.8,0h1.8
		c8,0,15.9,0.1,23.9,0.2l0,0c12.2,0.2,24.3,0.5,36.5,0.9l7.2,0.2c5.5,0.2,10.9,0.4,16.4,0.6l8.3,0.4l10.1,0.5
		c3.6,0.2,7.2,0.4,10.8,0.6c4.3,0.2,8.7,0.5,13,0.8l9.3,0.6c7.5,0.5,15,1,22.5,1.6l0,0c6.6,0.5,13.2,1,19.9,1.6l1,0.1
		c6.6,0.6,13.1,1.1,19.7,1.8l0.8,0.1c6.7,0.6,13.4,1.3,20.1,2h0.3c6.8,0.7,13.6,1.4,20.4,2.2l0,0c4.3,0.5,8.6,1,12.9,1.5l0,0
		c14.4,1.7,28.7,3.5,43,5.4l1.1,0.2c6.8,0.9,13.6,1.9,20.3,2.9c7.2,1,14.4,2.1,21.6,3.2L821.8,775.9z"/>
</g>
<g>
	<path class="st0" d="M925,364.1c-13.8-5.3-28.1-10.6-42.8-15.7V151.8c0-32.2-22.5-66.5-52.5-79.9C610.9-24,362-24,143.2,71.9
		c-29.7,13.4-52.3,47.7-52.3,79.9v198.5c-12.6,4.5-25.1,9-37,13.6c-34.7,13.2-57.7,47.9-53.4,80.7c16.6,129.9,33.2,260.7,49.3,389.2
		c4.2,33.3,32.4,58.4,66,58.7c2.6,0,5.2-0.1,7.8-0.5h0.4l17.8-2.3c151.8,193,431.4,226.4,624.4,74.5c27.6-21.7,52.5-46.6,74.2-74.1
		l14.3,1.8h0.4c2.6,0.3,5.2,0.5,7.8,0.5c33.6-0.2,61.9-25.4,66-58.8c16-128,32.5-258.9,49.2-388.9
		C982.5,411.9,959.5,377.2,925,364.1z M944,440.2c-16.1,126.1-32.5,255.9-49.2,389.2c-2.1,17.5-17.8,30-35.3,28.2
		c-11.7-1.5-23.2-2.9-34.7-4.2c-26.3,36.8-58.5,69-95.3,95.3c-184.3,131.5-440.3,88.7-571.8-95.6c-12.8,1.5-25.5,3-38.2,4.7
		c-17.5,1.9-33.2-10.7-35.3-28.2c-16.7-133.7-33-263.4-49-389.2c-2.2-16.6,11.7-36.5,31.3-43.9c19.7-7.6,39.5-14.7,59.4-21.3V151.8
		c0-18.2,13.9-40.3,31.6-48c209.9-91.9,448.6-91.9,658.5,0c17.6,7.9,31.7,29.8,31.7,48v221.4c21.7,7.1,43.4,14.7,64.9,23.1
		C932,403.8,946,423.6,944,440.2z"/>
</g>
<g>
	<circle class="st1" cx="488.1" cy="594.2" r="270.9"/>
</g>
<g class="st2">
	<path class="st0" d="M307.5,855.7l-33.1,45.4c-7.2,9.9-16,8.5-22.5,3.8c-6.4-4.7-10.5-12.6-3.3-22.6l33.1-45.4
		c7.2-9.9,16.1-8.5,22.5-3.8C310.7,837.9,314.8,845.8,307.5,855.7z M298.9,849.8c1.6-2.3,2.7-5.1-1.1-7.9c-3.7-2.7-6.2-0.9-7.8,1.4
		l-32.7,44.9c-1.7,2.4-2.8,5.2,1,8c3.7,2.7,6.2,0.9,7.9-1.5L298.9,849.8z"/>
</g>
<g class="st2">
	<path class="st0" d="M312.1,938.2c-0.3,1.1-1.2,0.9-1.8,0.5l-7-3.9c-0.6-0.4-0.8-1.1-0.6-1.9l12.3-39.2c0.1-0.5-0.1-1-0.7-1.3
		l-2-1.1c-0.6-0.4-1.4-0.2-1.8,0.4l-19.3,34.9c-0.4,0.6-1.1,0.9-1.7,0.6l-6.9-3.8c-0.6-0.4-0.9-1.2-0.5-1.8l39.9-72.3
		c0.4-0.6,1.2-0.9,1.8-0.5l16.3,9c5.7,3.2,7.7,10.8,4.5,16.5l-9,16.3c-2,3.6-5.6,5.6-9.5,6c-0.6,0.1-1.1,0.5-1.4,1.5L312.1,938.2z
		 M333.5,872.4c1.4-2.4,0.7-5.7-1.7-7l-4-2.2c-0.6-0.4-1.4-0.2-1.8,0.4l-9.3,16.9c-0.3,0.5,0,1.3,0.6,1.6l4,2.2
		c2.3,1.3,5.3,0.4,6.6-1.9L333.5,872.4z"/>
</g>
<g class="st2">
	<path class="st0" d="M375.7,914.5l-13.1,33c-3.8,9.5-13.1,9.6-20,6.8c-7.8-3.1-13.7-9.9-9.3-21.1l20.5-51.4
		c4.5-11.4,13.4-12.1,21.2-9c6.9,2.7,13.8,8.9,10.5,17.1l-2.6,6.4c-0.2,0.6-1,0.9-1.6,0.7l-7.3-1.8c-0.8-0.2-1.2-1-0.9-1.7l1.3-3.3
		c1-2.6,1.4-5.7-3.4-7.6c-4.7-1.9-6.5,0.7-7.6,3.3l-20.2,50.9c-1,2.5-1.4,5.6,3.3,7.5c4.7,1.9,6.7-0.6,7.7-3.2l8-20.5
		c0.3-0.7,0-1.4-0.6-1.7l-3.9-1.4c-0.7-0.3-0.9-1-0.6-1.7l2.9-7.2c0.3-0.7,0.9-1,1.6-0.7l13.4,5.4
		C375.5,913.4,375.9,913.9,375.7,914.5z"/>
</g>
<g class="st2">
	<path class="st0" d="M402.9,884.7c0.4-0.6,0.9-1.1,1.6-1l11.7,3c0.7,0.2,0.9,0.9,0.8,1.6c0,0.4-9.9,80.9-10.2,82.9
		c-0.2,1.1-0.8,1.2-1.5,1l-7.8-2c-0.7-0.2-0.9-0.9-0.8-1.6c0.1-0.7,0.3-3,1-9.2c0-0.5-0.1-0.9-0.7-1.1l-10.4-2.7
		c-0.5-0.1-0.8,0.2-1,0.6l-3.6,8.5c-0.3,0.7-0.9,1.1-1.6,1l-7.7-2c-0.7-0.2-1.4-0.6-1-1.6L402.9,884.7z M390.6,946.8l7.2,1.9
		c0.5,0.1,1.1-0.2,1.1-0.7l8.4-51.1l-17.4,48.8C389.8,946.2,390.2,946.7,390.6,946.8z"/>
</g>
<g class="st2">
	<path class="st0" d="M457.9,895.8c0.1-0.7,0.7-1.3,1.4-1.2l7.8,1c0.7,0.1,1.2,0.8,1.2,1.5l-10.6,81.8c-0.1,0.6-0.8,1.1-1.5,1
		l-7.5-1c-0.7-0.1-1.2-0.8-1.4-1.4c-0.8-6.1-5.8-35.6-8.2-53.8l-6.7,51.8c-0.1,0.7-0.7,1.3-1.4,1.2l-7.8-1c-0.7-0.1-1.2-0.8-1.2-1.5
		l10.6-82c0.1-0.7,0.8-1.1,1.5-1l8.1,1c0.5,0.1,1.1,0.3,1.1,0.8L451,949L457.9,895.8z"/>
</g>
<g class="st2">
	<path class="st0" d="M478.3,897.7c0-1,0.8-1.7,1.7-1.7l7.2,0.2c1,0,1.7,0.8,1.7,1.7l-2.2,81.6c0,1-0.8,1.7-1.7,1.7l-7.2-0.2
		c-1,0-1.7-0.8-1.7-1.7L478.3,897.7z"/>
</g>
<g class="st2">
	<path class="st0" d="M518.5,905.7l-17,1.1c-0.7,0-1.5-0.6-1.6-1.6l-0.5-6.9c-0.1-1.1,0.5-1.9,1.6-1.9l25.1-1.6
		c0.8-0.1,1.5,0.4,2.3,1.4l3.5,5c0.5,0.9,1,1.8,0.6,3.3l-19.8,63.9c-0.3,1.2,0.7,2,1.8,2L533,969c0.7,0,1.5,0.6,1.6,1.6l0.5,6.9
		c0.1,1.1-0.5,1.9-1.6,1.9l-25.8,1.7c-1.3,0.1-2.5-0.9-3.3-2l-3.2-4.4c-0.8-1.3-0.7-2.8-0.4-3.9l19.6-63.3
		C520.7,906.4,519.6,905.6,518.5,905.7z"/>
</g>
<g class="st2">
	<path class="st0" d="M544.4,893.6c0.1-0.8,0.4-1.4,1.1-1.6l11.8-2.2c0.7-0.1,1.2,0.4,1.4,1.1c0.2,0.3,24.9,77.2,25.5,79
		c0.3,1-0.2,1.4-1,1.5l-7.9,1.4c-0.7,0.1-1.2-0.4-1.4-1.1c-0.3-0.7-1-2.8-3-8.7c-0.2-0.5-0.5-0.8-1.1-0.7l-10.5,1.9
		c-0.5,0.1-0.6,0.5-0.7,1l0.3,9.2c0,0.7-0.4,1.4-1.1,1.5l-7.7,1.4c-0.7,0.1-1.5,0-1.6-1.1L544.4,893.6z M559.3,954.8l7.3-1.3
		c0.5-0.1,0.9-0.7,0.7-1.1l-13.8-49.7l4.8,51.3C558.3,954.6,558.9,954.9,559.3,954.8z"/>
</g>
<g class="st2">
	<path class="st0" d="M605.9,877.6l2.3,7.5c0.2,0.7-0.2,1.5-0.9,1.7l-10,3.1c-0.7,0.2-1.1,1-0.9,1.7l21.4,68.7
		c0.2,0.7-0.2,1.5-0.8,1.6l-7.5,2.3c-0.7,0.2-1.5-0.2-1.7-0.9l-21.4-68.7c-0.2-0.7-1-1.1-1.7-0.9l-9.9,3.1c-0.7,0.2-1.5-0.2-1.7-0.9
		l-2.3-7.5c-0.2-0.7,0.2-1.5,0.9-1.7l32.4-10.1C604.9,876.5,605.7,876.9,605.9,877.6z"/>
</g>
<g class="st2">
	<path class="st0" d="M612,875.2c-0.4-0.9,0-1.9,0.9-2.2l6.6-2.8c0.9-0.4,1.9,0,2.2,0.9l31.5,75.4c0.4,0.9,0,1.9-0.9,2.2l-6.6,2.8
		c-0.9,0.4-1.9,0-2.2-0.9L612,875.2z"/>
</g>
<g class="st2">
	<path class="st0" d="M664.4,864l26.4,49.4c5.8,10.8,0.7,18.1-6.4,21.9c-7,3.7-15.9,4-21.7-6.9L636.3,879
		c-5.8-10.8-0.6-18.1,6.4-21.9C649.8,853.4,658.6,853.2,664.4,864z M655.3,869.2c-1.3-2.5-3.4-4.6-7.5-2.5c-4.1,2.2-3.5,5.1-2.1,7.6
		l26.1,48.9c1.4,2.6,3.5,4.7,7.6,2.6s3.5-5.1,2.1-7.7L655.3,869.2z"/>
</g>
<g class="st2">
	<path class="st0" d="M685.6,833.7c-0.4-0.6-0.4-1.4,0.2-1.8l6.4-4.6c0.6-0.4,1.4-0.3,1.9,0.3l47.9,66.8c0.4,0.5,0.2,1.3-0.4,1.8
		l-6.1,4.4c-0.6,0.4-1.4,0.3-2-0.1c-4.7-3.9-28.4-22-42.5-33.6l30.3,42.3c0.4,0.6,0.4,1.4-0.2,1.8l-6.4,4.6
		c-0.6,0.4-1.4,0.3-1.9-0.3l-47.9-66.9c-0.4-0.6-0.2-1.3,0.4-1.8l6.6-4.7c0.4-0.3,1-0.5,1.3-0.2l43.6,35.5L685.6,833.7z"/>
</g>
<g>
	<path class="st0" d="M174.4,637.4c-0.2-1.3,0.7-2.5,2-2.7h0.1c9.1-1.4,18.3-2.8,27.4-4.1c9.3-1.2,17.8,5.4,19,14.6v0.1l2.9,21.2
		c1.1,5.5-1.2,11.2-5.8,14.5c5.4,1.9,9.1,6.8,9.5,12.5l4.7,34.7c1.1,8.4-5.1,18.1-13.5,19.3s-17.4,2.5-25.9,3.9
		c-1.2,0.3-2.4-0.5-2.7-1.7c0-0.1,0-0.2-0.1-0.3L174.4,637.4z M198.7,677.7l6.6-1c3.6-1,5.9-4.6,5.2-8.3l-2.3-16.4
		c-0.3-3.8-3.6-6.7-7.4-6.4l0,0l-6.7,1c-1.3,0.1-2.3,1.3-2.1,2.6l0,0v0.1l4,26.4C196.1,677,197.3,677.9,198.7,677.7L198.7,677.7
		L198.7,677.7z M207.2,734.7l6.4-0.9c3.6-1,5.7-4.6,5-8.2l-3.9-27.4c-0.3-3.8-3.5-6.7-7.3-6.5l-6.6,1c-1.3,0.1-2.2,1.3-2.1,2.6l0,0
		v0.1l5.6,37.4c0.2,1.3,1.3,2.2,2.6,2h0.1L207.2,734.7z"/>
</g>
<g>
	<path class="st0" d="M252.7,625.7c0.2-1,0.7-1.9,1.7-2.1l17.7-2c1,0,1.8,0.7,2,1.6c0.5,0.5,27.1,109.9,27.5,112.6
		c0.3,1.5-0.5,1.9-1.5,2L289,739c-1,0-1.8-0.7-1.9-1.7c-0.3-1-1.1-4-3.2-12.4c-0.2-0.7-0.8-1.1-1.5-1l-15,1.7c-0.7,0-1,0.6-1,1.3
		c-0.1,4.3-0.2,8.5-0.4,12.8c0.1,1-0.6,1.9-1.6,2.1l-10.9,1.3c-1,0-2,0-2.1-1.6C251.5,702.9,252,664.3,252.7,625.7z M268.1,712.1
		l10.4-1.2c0.7-0.1,1.1-0.7,1.1-1.3v-0.1c-4.8-23.5-9.7-47-14.6-70.5c0.5,24,1,47.9,1.6,71.9C266.7,711.6,267.4,712.2,268.1,712.1
		L268.1,712.1L268.1,712.1z"/>
</g>
<g>
	<path class="st0" d="M329.7,629.8c-5.3,0.6-9.2,5.4-8.6,10.7l0,0c0,0.3,0,0.6,0.1,0.9c2,21.6,38.4,32.6,40.3,62.5
		c0.8,11.5-5.3,30.3-23.6,31.8c-13.6,1.1-24.8-6.9-26.7-24.8l-0.4-4c-0.1-1,0.7-1.9,1.7-2l11-1c1-0.1,1.9,0.7,2,1.7l0.3,3.5
		c0.7,8.2,5.7,12.5,11.4,12.1s9.8-5.7,9-16.8c-1.7-23.7-38.5-31.9-41.5-61.4c-1.5-13.6,8.3-25.9,21.9-27.4h0.1l1.1-0.1
		c13.3-1.6,25.4,7.9,27.1,21.2c0,0.1,0,0.3,0,0.5c0.1,1-0.5,1.9-1.5,2c0,0,0,0,0,0h-0.1l-11.5,0.8c-1,0.1-2-0.7-2.1-1.7
		c-0.3-5-4.6-8.7-9.5-8.4L329.7,629.8z"/>
</g>
<g>
	<path class="st0" d="M429.1,726.2c0.8,2-0.2,2.7-1.6,2.8l-10.2,0.4c-1.4,0-2.6-0.9-3-2.3c-7.2-17.7-14.6-35.4-22.2-53l2.9,54.3
		c0,1.3-1,2.3-2.2,2.3c0,0,0,0,0,0l0,0l-9,0.5c-1.3,0.1-2.5-0.7-2.7-2L374.1,616c0-1.4,1.1-2.6,2.5-2.7l9.5-0.5
		c1.4-0.1,2.6,1,2.6,2.4l2.5,47.2c5.4-16.4,13.9-43.5,15.8-48.1c0.7-1.7,1.1-2.6,2.4-2.6l11.8-0.5c0,0,2.1,0,1.4,2.5
		c-6.4,17.5-12.6,35-18.6,52.5C412.8,686.1,421.1,706.1,429.1,726.2z"/>
</g>
<g>
	<path class="st0" d="M463.2,713.5c8.4-0.1,16.7-0.2,25.1-0.3c1.2,0,2.2,0.9,2.2,2.1c0,0,0,0,0,0l0,0v9.9c0,1.3-1,2.5-2.4,2.5
		c-13.2,0-26.3,0.2-39.5,0.6c-1.3,0-2.4-1.1-2.4-2.5l-3-113.3c0-1.3,1-2.4,2.4-2.4h0c14-0.3,28-0.6,42-0.7c1.3-0.1,2.4,0.9,2.5,2.2
		V622c0,1.3-1.1,2.4-2.4,2.4h-0.1c-8.8,0-17.6,0.1-26.4,0.3c-1.3-0.1-2.4,1-2.5,2.2v0.1l0.6,30.7c0,1.3,1.1,2.3,2.4,2.3c0,0,0,0,0,0
		h0.1c6.9-0.1,13.9-0.2,20.8-0.3c1.3-0.1,2.4,1,2.5,2.2v10c0,1.3-1,2.4-2.3,2.4c0,0,0,0,0,0h-0.1c-6.9,0-13.8,0.1-20.6,0.3
		c-1.2-0.1-2.3,0.9-2.4,2.1c0,0.1,0,0.2,0,0.3l0.7,34.3C460.6,712.7,461.8,713.7,463.2,713.5C463.2,713.5,463.2,713.5,463.2,713.5z"
		/>
</g>
<g>
	<path class="st0" d="M557.8,612.1l-0.3,11c-0.1,1-1,1.8-2,1.8l-15.3-0.4c-1,0-1.9,0.8-2,1.8l-1.9,99.9c0,1-0.8,1.8-1.7,1.8h-11
		c-1,0-1.8-0.8-1.8-1.8l1.2-100c0-1.1-0.9-1.9-1.9-1.9c0,0,0,0,0,0h-15.2c-1,0-1.9-0.8-1.9-1.9v-11.2c0.1-1.1,0.9-1.9,2-1.8
		c16.7,0,33.4,0.3,50.1,0.8C556.9,610.2,557.8,611,557.8,612.1z"/>
</g>
<g>
	<path class="st0" d="M576.6,613.4c0.1-1.3,1.2-2.3,2.5-2.3h0.1c9.3,0.4,18.5,0.8,27.8,1.2c9.3,0.6,16.4,8.7,15.8,18v0.1l-1.3,21.4
		c0,5.6-3.4,10.7-8.5,13c4.9,2.9,7.7,8.4,7,14.1l-2.1,35.1c-0.5,8.4-8.5,16.7-17,16.3s-17.4-0.9-26.1-1.2c-1.2,0-2.3-0.9-2.3-2.1
		c0-0.1,0-0.2,0-0.3L576.6,613.4z M592.7,657.7l6.7,0.3c3.7-0.3,6.6-3.3,6.7-7l0.9-16.5c0.5-3.8-2.2-7.3-6-7.7l-6.9-0.3
		c-1.3-0.1-2.5,0.8-2.6,2.1v0.2l-1.2,26.6C590.2,656.6,591.3,657.6,592.7,657.7C592.6,657.6,592.6,657.6,592.7,657.7L592.7,657.7
		L592.7,657.7z M590,715.2l6.5,0.3c3.6-0.3,6.5-3.3,6.5-6.9l1.5-27.8c0.5-3.7-2.1-7.2-5.9-7.7l-6.6-0.3c-1.3-0.1-2.4,0.9-2.5,2.2
		c0,0,0,0,0,0l0,0v0.1l-1.9,37.8c-0.1,1.3,0.9,2.4,2.2,2.5L590,715.2z"/>
</g>
<g>
	<path class="st0" d="M655.7,617c0.4-1,1-1.8,2.1-1.7l17.7,1.5c1.1,0,1.5,1,1.6,2s5.3,113,5.1,115.8c0,1.5-0.8,1.8-1.9,1.7l-11.2-1
		c-1,0-1.5-1-1.5-2s-0.3-4.1-0.8-12.8c0-0.7-0.6-1.2-1.2-1.3l-15-1.2c-0.6,0-1.2,0.4-1.3,1l-2.8,12.5c-0.1,1-1,1.7-2,1.7l-11-0.8
		c-1,0-2-0.5-1.7-2C639.6,692.6,647.5,654.8,655.7,617z M654.2,704.8l10.4,0.9c0.7,0.1,1.3-0.4,1.3-1.1c0,0,0-0.1,0-0.1
		c-0.2-24-0.4-47.9-0.7-71.9c-4.2,23.6-8.3,47.2-12.3,70.8c-0.1,0.7,0.5,1.4,1.2,1.5c0,0,0,0,0,0L654.2,704.8L654.2,704.8z"/>
</g>
<g>
	<path class="st0" d="M742.9,728.3c1.3,0.1,2.2,1.3,2.1,2.5c0,0,0,0,0,0l0,0v0.1l-1.2,9.7c0.1,1.2-0.8,2.2-1.9,2.3
		c-0.2,0-0.5,0-0.7-0.1c-13.2-1.7-26.3-3.2-39.5-4.6c-1.3-0.3-2.3-1.4-2.3-2.8l11.7-113.9c0,0,0-1.2,1.7-1l12.7,1.4
		c0.7-0.1,1.3,0.4,1.3,1.1c0,0.1,0,0.2,0,0.2l-11,99.3c-0.2,1.3,0.7,2.4,2,2.6h0.1C726.3,726.2,734.6,727.3,742.9,728.3z"/>
</g>
<g>
	<path class="st0" d="M804.5,737c1.3,0.2,2.2,1.3,2,2.6v0.1l-1.5,9.7c0,1.2-1,2.2-2.2,2.2c-0.2,0-0.4,0-0.6-0.1
		c-13.1-2.1-26.2-4-39.3-5.8c-1.3-0.3-2.2-1.5-2.2-2.8L776,629.4c0,0,0-1.2,1.8-0.9l12.7,1.8c0.7,0,1.3,0.6,1.3,1.3c0,0,0,0.1,0,0.1
		l-14.1,99c-0.2,1.3,0.7,2.5,1.9,2.7h0.1C787.9,734.4,796.1,735.7,804.5,737z"/>
</g>
<g>
	<path class="st0" d="M344.8,108.1l0.5,68.5c-13.1,1.7-26.1,3.6-39.1,5.8v-21.8c-14.1,2.6-28.1,5.5-42.1,8.8l0.3,50.9
		c22-3.8,44.1-6.9,66.2-9.6l0.2,44.6c-22.2,2-44.2,4.4-66.2,7.2c0,19.5,0.1,39,0.2,58.5l19-1l0.3,43.7l-81.6,0.4v-39.3l19.1-1.3
		c-0.2-47.8-0.4-95.5-0.6-143.2c-6.2,1.7-12.4,3.5-18.6,5.4v-39.5C248.5,129.3,296.2,116.5,344.8,108.1z"/>
</g>
<g>
	<path class="st0" d="M424.7,98c11.1,71.7,22,144.2,32.9,217.1h19.1v48.3h-69.5l-0.2-47.6l10.7-0.2l-2-23.5
		c-10.8,0.3-21.5,0.6-32.3,1l-2.4,23.2l11-0.3l0.2,47.3l-70,0.2l-0.3-45.2l18.9-0.7c10.4-69.9,20.8-141.2,31.2-213.9
		C389.6,101.3,407.1,99.4,424.7,98z M389.7,245.7c6.5-0.4,13.1-0.7,19.6-1c-3.4-24.9-6.8-49.8-10.2-74.5L389.7,245.7z"/>
</g>
<g>
	<path class="st0" d="M633.1,142.2l-0.4,68.8c-6.1,6.4-12.2,12.9-18.3,19.6c6,7.6,12,15.2,17.9,22.7l-0.5,77.4
		c-9.4,10.7-18.8,21.5-28.1,32.6h-122v-47.4h19.1V145.8h-19.2v-50c41.1-0.4,82.2,2.3,122.8,8L633.1,142.2z M544.8,222
		c11.6-6.8,23.1-13.4,34.7-19.7l9-10.4v-29.7l-9.3-12.4c-11.3-1-22.7-1.9-34.2-2.5L544.8,222z M544.8,316.5
		c11.3,0.1,22.6,0.3,33.9,0.6l9.7-10.9l0.2-39.4l-9.2-11.6c-11.6,6.6-23.1,13.4-34.5,20.4L544.8,316.5z"/>
</g>
<g>
	<path class="st0" d="M746.1,136.8c9.4,13.1,18.8,26,28.2,38.6v159.7c-9.6,9.3-19.3,18.9-29,28.8l-73.2-0.3
		c-9.5-11-19.1-22.3-28.6-33.8l1.4-185.5c9.7-9.6,19.4-18.9,29-27.8C698.1,122.3,722.2,129,746.1,136.8z M722.7,321.1l8-8.4
		l0.7-130.2l-7.4-10.1c-9.1-2.3-18.2-4.4-27.3-6.2c-2.8,2.5-5.5,5-8.3,7.6l-0.9,136.7l7.6,9.2L722.7,321.1z"/>
</g>
</svg>
