<svg id="Layer_1" data-name="Layer 1" xmlns="http://www.w3.org/2000/svg" viewBox="0 0 630.88 423.62"><defs><style>.cls-1{fill:#fff;opacity:0.05;}</style></defs><title>half_court_bkg</title><path class="cls-1" d="M630.76,420.32v-88c0-88.76-32.79-172.21-92.34-235S399.64,0,315.39,0s-163.46,34.58-223,97.38S0,243.6,0,332.36v88H0v3.3H630.88v-3.3Zm-435.17,0V151.14h28.2V420.32ZM227.1,147.84a88.08,88.08,0,0,1,176.14,0Zm176.14,3.3a88.08,88.08,0,0,1-176.14,0ZM227.08,420.32V173.83a91.39,91.39,0,0,0,176.18,0v246.5Zm179.48,0V151.14h29.67V420.32Zm0-272.48h0a91.38,91.38,0,0,0-182.73,0H192.29V420.32H3.31v-88c0-87.91,32.47-170.56,91.43-232.71S232,3.3,315.39,3.3,477.09,37.51,536,99.65s91.43,144.8,91.43,232.71v88H439.52V147.84Z" transform="translate(0 0)"/></svg>