<?xml version="1.0" encoding="utf-8"?>
<!-- Generator: Adobe Illustrator 20.1.0, SVG Export Plug-In . SVG Version: 6.00 Build 0)  -->
<svg version="1.1" id="Layer_1" xmlns="http://www.w3.org/2000/svg" xmlns:xlink="http://www.w3.org/1999/xlink" x="0px" y="0px"
	 viewBox="0 0 630.9 423.6" style="enable-background:new 0 0 630.9 423.6;" xml:space="preserve">
<style type="text/css">
	.st0{fill:#E9EBED;enable-background:new    ;}
</style>
<title>half_court_bkg</title>
<path class="st0" d="M630.8,420.3v-88c0-88.8-32.8-172.2-92.3-235S399.6,0,315.4,0s-163.5,34.6-223,97.4S0,243.6,0,332.4v88l0,0v3.3
	h630.9v-3.3L630.8,420.3z M195.6,420.3V151.1h28.2v269.2H195.6z M227.1,147.8c0.7-48.6,40.8-87.5,89.4-86.7
	c47.6,0.7,86,39.1,86.7,86.7H227.1z M403.2,151.1c-0.7,48.6-40.8,87.5-89.4,86.7c-47.6-0.7-86-39.1-86.7-86.7H403.2z M227.1,420.3
	V173.8c13.4,48.7,63.8,77.2,112.4,63.8c31-8.6,55.2-32.8,63.8-63.8v246.5L227.1,420.3z M406.6,420.3V151.1h29.7v269.2H406.6z
	 M406.6,147.8L406.6,147.8c-0.9-50.5-42.6-90.6-93-89.7c-49.2,0.9-88.8,40.5-89.7,89.7h-31.5v272.5H3.3v-88
	c0-87.9,32.5-170.6,91.4-232.7S232,3.3,315.4,3.3S477.1,37.5,536,99.7s91.4,144.8,91.4,232.7v88H439.5V147.8H406.6z"/>
</svg>
