<svg id="Layer_1" data-name="Layer 1" xmlns="http://www.w3.org/2000/svg" viewBox="0 0 572.03 268.4"><defs><style>.cls-1{fill:#fff;}</style></defs><title>secondary_fabo_logo</title><path class="cls-1" d="M142.53,12.32,143,80.87q-19.62,2.53-39.1,5.76V64.86q-21.15,3.92-42.12,8.75l.31,50.94q33-5.63,66.18-9.58l.16,44.6q-33.23,3-66.25,7.19,0,29.27.21,58.54l19-1L81.68,268l-81.6.38V229.1l19.06-1.28q-.28-71.64-.56-143.24Q9.27,87.18,0,90V50.51A829.9,829.9,0,0,1,142.53,12.32Z" transform="translate(0 0)"/><path class="cls-1" d="M222.46,2.29c11.08,71.67,22,144.21,32.88,217.09h19.07v48.3H205l-.17-47.61,10.73-.21-2-23.51q-16.15.42-32.26,1l-2.43,23.16,11-.28.24,47.33-70,.17-.35-45.16,18.86-.69Q154.2,117,169.82,8,196,4.34,222.46,2.29ZM187.41,150q9.79-.56,19.58-1-5.1-37.4-10.24-74.48Z" transform="translate(0 0)"/><path class="cls-1" d="M430.84,46.42l-.35,68.82q-9.17,9.62-18.3,19.58,9,11.42,17.88,22.74l-.52,77.37q-14.06,16-28.14,32.64h-122v-47.4h19.1V50H279.27V0A830.91,830.91,0,0,1,402.12,8Zm-88.3,79.87q17.36-10.21,34.72-19.72l9-10.42V66.42L376.95,54q-17-1.53-34.17-2.5Zm0,94.48q16.95.21,33.89.59l9.72-10.9.21-39.38-9.2-11.56q-17.36,9.9-34.52,20.35Z" transform="translate(0 0)"/><path class="cls-1" d="M543.87,41Q558,60.73,572,79.65V239.38q-14.41,13.89-29,28.82l-73.16-.31q-14.31-16.49-28.58-33.79l1.36-185.53q14.55-14.45,29-27.78Q508,29.37,543.87,41Zm-23.4,184.35,8-8.44.66-130.25-7.4-10.07q-13.61-3.47-27.33-6.22-4.17,3.75-8.3,7.6l-.94,136.67,7.6,9.2Z" transform="translate(0 0)"/></svg>